<?xml version="1.0" encoding="utf-8"?>
<!-- Generator: Adobe Illustrator 22.0.1, SVG Export Plug-In . SVG Version: 6.00 Build 0)  -->
<svg version="1.1" id="mlperf_x5F_logo_x5F_horizontal_x5F_color"
	 xmlns="http://www.w3.org/2000/svg" xmlns:xlink="http://www.w3.org/1999/xlink" x="0px" y="0px" viewBox="0 0 494 166"
	 style="enable-background:new 0 0 494 166;" xml:space="preserve">
<style type="text/css">
	.st0{fill:#333333;}
	.st1{fill:#1A6197;}
	.st2{fill:#B4BFC1;}
</style>
<g>
	<g>
		<path class="st0" d="M242.3,58.3c0.9,0.9,1.4,1.9,1.4,3.2v43c0,1.3-0.4,2.4-1.3,3.2c-0.8,0.9-2,1.3-3.3,1.3
			c-1.4,0-2.5-0.4-3.4-1.3c-0.9-0.8-1.3-1.9-1.3-3.3V74.6l-12.2,18.7c-0.5,0.6-1.1,1.1-1.7,1.4c-0.6,0.4-1.3,0.5-2,0.5
			c-0.6,0-1.3-0.1-1.9-0.5c-0.6-0.4-1.2-0.9-1.7-1.4l-12.2-19.4v30.6c0,1.3-0.4,2.4-1.2,3.3c-0.8,0.8-1.8,1.3-3.1,1.3
			c-1.2,0-2.3-0.4-3-1.3c-0.8-0.9-1.2-1.9-1.2-3.2v-43c0-1.2,0.5-2.3,1.4-3.2c0.9-0.9,2-1.3,3.3-1.3c0.7,0,1.5,0.2,2.2,0.6
			c0.7,0.4,1.3,0.9,1.7,1.4l16.2,24.9L235.4,59c0.4-0.6,0.9-1.1,1.6-1.4c0.7-0.4,1.3-0.6,2-0.6C240.3,57,241.3,57.4,242.3,58.3z"/>
		<path class="st0" d="M286.7,101.5c0.9,0.8,1.3,1.9,1.3,3.2c0,1.2-0.4,2.3-1.3,3.1c-0.9,0.8-1.9,1.2-3.2,1.2h-24.1
			c-1.3,0-2.4-0.4-3.2-1.3c-0.9-0.9-1.3-1.9-1.3-3.2V61.5c0-1.3,0.4-2.4,1.3-3.2c0.9-0.9,2-1.3,3.4-1.3c1.2,0,2.3,0.4,3.2,1.3
			c0.9,0.9,1.3,1.9,1.3,3.2v38.8h19.4C284.7,100.3,285.8,100.7,286.7,101.5z"/>
		<path class="st0" d="M325.2,59.3c2.3,1.5,4.1,3.5,5.5,6.1c1.4,2.6,2.1,5.3,2.1,8.4c0,3-0.7,5.7-2.1,8.3c-1.4,2.6-3.2,4.6-5.5,6.1
			c-2.3,1.5-4.7,2.3-7.2,2.3H305v14c0,1.3-0.4,2.4-1.2,3.3s-1.8,1.3-3.1,1.3c-1.2,0-2.3-0.4-3-1.3c-0.8-0.9-1.2-1.9-1.2-3.2V61.5
			c0-1.3,0.4-2.4,1.3-3.2c0.9-0.9,1.9-1.3,3.2-1.3H318C320.5,57,322.9,57.8,325.2,59.3z M320.8,80.8c0.9-0.8,1.7-1.8,2.2-3.1
			c0.6-1.3,0.9-2.6,0.9-4c0-1.4-0.3-2.7-0.9-4c-0.6-1.3-1.3-2.3-2.2-3c-0.9-0.8-1.8-1.2-2.8-1.2H305V82H318
			C318.9,82,319.8,81.6,320.8,80.8z"/>
		<path class="st0" d="M373.9,90.4c-0.9,0.7-1.9,1.1-3.1,1.1h-24.5c0.6,2.9,2,5.2,4.1,6.9c2.1,1.7,4.5,2.5,7.2,2.5
			c2,0,3.6-0.2,4.7-0.6c1.1-0.4,2-0.8,2.7-1.2c0.7-0.4,1.1-0.7,1.4-0.9c0.9-0.4,1.7-0.7,2.5-0.7c1,0,1.9,0.4,2.7,1.1
			c0.7,0.7,1.1,1.6,1.1,2.6c0,1.3-0.7,2.5-2.1,3.6c-1.4,1.1-3.2,2.1-5.6,2.9c-2.3,0.8-4.7,1.2-7,1.2c-4.2,0-7.8-0.9-10.9-2.6
			c-3.1-1.7-5.5-4.1-7.2-7.2c-1.7-3-2.5-6.5-2.5-10.3c0-4.3,0.9-8,2.7-11.2c1.8-3.2,4.1-5.7,7-7.4c2.9-1.7,6-2.6,9.3-2.6
			c3.3,0,6.3,0.9,9.2,2.7c2.9,1.8,5.2,4.2,6.9,7.2c1.7,3,2.6,6.3,2.6,9.8C375.2,88.7,374.8,89.6,373.9,90.4z M346.4,84.1h19.4v-0.5
			c-0.2-2.1-1.2-3.9-3-5.3c-1.8-1.5-3.9-2.2-6.2-2.2C350.8,76,347.4,78.7,346.4,84.1z"/>
		<path class="st0" d="M407.5,69.8c1,0.8,1.5,1.8,1.5,3c0,1.5-0.4,2.7-1.2,3.4c-0.8,0.8-1.7,1.1-2.8,1.1c-0.7,0-1.6-0.2-2.5-0.5
			c-0.1,0-0.5-0.1-1-0.3c-0.5-0.1-1.1-0.2-1.7-0.2c-1.3,0-2.5,0.4-3.7,1.2c-1.2,0.8-2.2,2-2.9,3.6c-0.8,1.6-1.1,3.5-1.1,5.7v17.6
			c0,1.3-0.4,2.4-1.3,3.2c-0.8,0.9-1.9,1.3-3.2,1.3c-1.3,0-2.3-0.4-3.2-1.3c-0.8-0.9-1.3-1.9-1.3-3.2V73.8c0-1.3,0.4-2.4,1.3-3.2
			c0.8-0.9,1.9-1.3,3.2-1.3c1.3,0,2.3,0.4,3.2,1.3c0.8,0.9,1.3,1.9,1.3,3.2v1c1.1-2,2.8-3.6,4.9-4.6c2.1-1.1,4.4-1.6,6.8-1.6
			C405.2,68.6,406.5,69,407.5,69.8z"/>
		<path class="st0" d="M432.3,63.3c-0.7,1-1,2-1,3.2V70h6.8c1.2,0,2.2,0.4,3,1.2c0.8,0.8,1.2,1.7,1.2,2.9c0,1.2-0.4,2.2-1.2,2.9
			c-0.8,0.8-1.8,1.2-3,1.2h-6.8v26.3c0,1.3-0.4,2.4-1.3,3.2c-0.8,0.9-1.9,1.3-3.2,1.3s-2.4-0.4-3.2-1.3c-0.8-0.9-1.3-1.9-1.3-3.2
			V78.2h-4c-1.2,0-2.2-0.4-3-1.2c-0.8-0.8-1.2-1.7-1.2-2.9c0-1.2,0.4-2.2,1.2-2.9c0.8-0.8,1.8-1.2,3-1.2h4v-3.4
			c0-3.7,1.3-6.7,3.8-9.1c2.6-2.3,6.2-3.5,11-3.5c1.8,0,3.4,0.4,4.8,1.1c1.4,0.7,2,1.9,2,3.4c0,1.2-0.3,2.2-1,2.9
			c-0.7,0.7-1.5,1.1-2.5,1.1c-0.2,0-0.5,0-0.8-0.1c-0.3,0-0.6-0.1-0.9-0.1c-1.2-0.3-2.2-0.4-3-0.4C434.1,61.9,433,62.4,432.3,63.3z"
			/>
	</g>
	<g>
		<path class="st1" d="M138.7,71.3l-24.2,39.3l0,0c-1.9,3.2-5.4,5.3-9.4,5.3c-6.1,0-11-4.9-11-11c0-4,2.1-7.5,5.3-9.4l0,0
			L138.7,71.3"/>
		<g>
			<path class="st2" d="M136.1,67.1l-11.7,7.2c-7.3-6.6-17-10.6-27.6-10.6C74,63.8,55.5,82.2,55.5,105c0,2.7,0.3,5.3,0.7,7.8l0,0
				c0,0.1,0,0.3,0,0.4c0,1.6-1.3,2.8-2.8,2.8c-1.4,0-2.6-1-2.8-2.4l0,0c-0.4-2.8-0.7-5.7-0.7-8.6c0-30.4,24.6-55,55-55
				c14,0,26.7,5.2,36.4,13.8L136.1,67.1z M146.2,68.6l-3.3,5.3l-8.6,14c2.4,5.2,3.7,11,3.7,17.1c0,0,0,0,0,0c0,6.1,4.9,11,11,11
				c6.1,0,11-4.9,11-11h0C160,91,154.8,78.3,146.2,68.6z"/>
		</g>
	</g>
</g>
</svg>
