<?xml version="1.0" encoding="utf-8"?>
<!-- Generator: Adobe Illustrator 18.1.1, SVG Export Plug-In . SVG Version: 6.00 Build 0)  -->
<svg version="1.1" id="Layer_1" xmlns="http://www.w3.org/2000/svg" xmlns:xlink="http://www.w3.org/1999/xlink" x="0px" y="0px"
	 viewBox="0 0 18 18" enable-background="new 0 0 18 18" xml:space="preserve">
<path fill="#ed1c24" d="M15.75,1.9998h-4.7499V1.839c0,0,0-0.839-0.8391-0.839h-2.322c0,0-0.839,0-0.839,0.839v0.1609H2.25
	c-0.4141,0-0.75,0.3359-0.75,0.75s0.3359,0.75,0.75,0.75h0.2501V3.5v12c0,0,0,1.5,1.5,1.5h10c0,0,1.5,0,1.5-1.5v-12V3.4998H15.75
	c0.4141,0,0.75-0.3359,0.75-0.75S16.1641,1.9998,15.75,1.9998z M6.5,13.8748c0,0.3452-0.2798,0.625-0.625,0.625
	s-0.625-0.2798-0.625-0.625v-8.75c0-0.3452,0.2798-0.625,0.625-0.625S6.5,4.7796,6.5,5.1248V13.8748z M9.625,13.8748
	c0,0.3452-0.2798,0.625-0.625,0.625s-0.625-0.2798-0.625-0.625v-8.75c0-0.3452,0.2798-0.625,0.625-0.625s0.625,0.2798,0.625,0.625
	V13.8748z M12.75,13.8748c0,0.3452-0.2798,0.625-0.625,0.625s-0.625-0.2798-0.625-0.625v-8.75c0-0.3452,0.2798-0.625,0.625-0.625
	s0.625,0.2798,0.625,0.625V13.8748z"/>
</svg>
