<?xml version="1.0" encoding="utf-8"?>
<!-- Generator: Adobe Illustrator 18.1.1, SVG Export Plug-In . SVG Version: 6.00 Build 0)  -->
<svg version="1.1" id="Layer_1" xmlns="http://www.w3.org/2000/svg" xmlns:xlink="http://www.w3.org/1999/xlink" x="0px" y="0px"
	 viewBox="0 0 18 18" enable-background="new 0 0 18 18" xml:space="preserve">
<path fill="#777" d="M9,1.25c-4.28,0-7.75,3.469-7.75,7.7499C1.25,13.28,4.72,16.75,9,16.75c4.28,0,7.75-3.47,7.75-7.7501
	C16.75,4.719,13.28,1.25,9,1.25z M9.8748,13.8071c0,0.4834-0.3916,0.875-0.875,0.875s-0.875-0.3916-0.875-0.875V7.6782
	c0-0.4834,0.3916-0.875,0.875-0.875s0.875,0.3916,0.875,0.875V13.8071z M9,5.512c-0.642,0-1.163-0.52-1.163-1.162
	S8.358,3.187,9,3.187c0.642,0,1.162,0.521,1.162,1.163S9.642,5.512,9,5.512z"/>
</svg>
