<?xml version="1.0" encoding="utf-8"?>
<!-- Generator: Adobe Illustrator 18.1.1, SVG Export Plug-In . SVG Version: 6.00 Build 0)  -->
<svg version="1.1" id="Layer_1" xmlns="http://www.w3.org/2000/svg" xmlns:xlink="http://www.w3.org/1999/xlink" x="0px" y="0px"
	 viewBox="0 0 18 18" enable-background="new 0 0 18 18" xml:space="preserve">
<path fill="#939598" d="M9,1.25c-4.28,0-7.75,3.469-7.75,7.7499c0,4.28,3.47,7.7501,7.75,7.7501s7.75-3.4701,7.75-7.7501
	C16.75,4.719,13.28,1.25,9,1.25z M8.723,14.5969c-0.642,0-1.163-0.52-1.163-1.1619c0-0.642,0.521-1.163,1.163-1.163
	c0.642,0,1.162,0.521,1.162,1.163C9.885,14.077,9.365,14.5969,8.723,14.5969z M10.6373,9.0262l-0.0142,0.0107
	C10.2794,9.2928,9.982,9.5135,9.8345,9.741c-0.1069,0.1611-0.1709,0.3369-0.2339,0.5107c-0.1475,0.4014-0.2632,0.7178-0.8765,0.7178
	c-0.5464,0-0.8325-0.4609-0.8325-0.917c0-0.8945,0.73-1.4375,1.4419-1.9668C10.0108,7.5828,10.65,7.1082,10.65,6.3524
	c0-0.8291-0.7021-1.4072-1.708-1.4072c-1.0591,0-1.3359,0.6172-1.583,1.168C7.15,6.5809,6.9854,6.95,6.3951,6.95
	c-0.4214,0-0.8472-0.2559-0.8472-0.8281c0-1.416,1.5762-2.7061,3.3062-2.7061c1.6597,0,3.5981,0.7695,3.5981,2.9365
	C12.4522,7.6795,11.4029,8.4578,10.6373,9.0262z"/>
</svg>
