<?xml version="1.0" encoding="utf-8"?>
<!-- Generator: Adobe Illustrator 18.1.1, SVG Export Plug-In . SVG Version: 6.00 Build 0)  -->
<svg version="1.1" id="Layer_1" xmlns="http://www.w3.org/2000/svg" xmlns:xlink="http://www.w3.org/1999/xlink" x="0px" y="0px"
	 viewBox="0 0 18 18" enable-background="new 0 0 18 18" xml:space="preserve">
<path fill="#ed1c24" d="M9,1.25C4.72,1.25,1.25,4.72,1.25,9c0,4.28,3.47,7.75,7.75,7.75c4.28,0,7.75-3.47,7.75-7.75C16.75,4.72,13.28,1.25,9,1.25z
	 M13.171,12.1106c0.293,0.293,0.293,0.7676,0,1.0605c-0.1465,0.1465-0.3379,0.2197-0.5303,0.2197s-0.3838-0.0732-0.5303-0.2197
	l-3.1113-3.1108l-3.1113,3.1108c-0.293,0.293-0.7676,0.293-1.0605,0s-0.293-0.7676,0-1.0605l3.1113-3.1108L4.8273,5.8884
	c-0.293-0.293-0.293-0.7676,0-1.0605s0.7676-0.293,1.0605,0l3.1113,3.1108l3.1113-3.1108c0.293-0.293,0.7676-0.293,1.0605,0
	s0.293,0.7676,0,1.0605l-3.1113,3.1113L13.171,12.1106z"/>
</svg>
