<?xml version="1.0" encoding="utf-8"?>
<!-- Generator: Adobe Illustrator 19.2.0, SVG Export Plug-In . SVG Version: 6.00 Build 0)  -->
<svg version="1.1" id="Layer_1" xmlns="http://www.w3.org/2000/svg" xmlns:xlink="http://www.w3.org/1999/xlink" x="0px" y="0px"
	 viewBox="0 0 18 18" enable-background="new 0 0 18 18" xml:space="preserve">
<path d="M9.1221,12.5195c-0.1953,0.1953-0.4512,0.293-0.707,0.293c-0.0232,0-0.045-0.0117-0.0681-0.0132
	c-0.0223,0.0015-0.0433,0.0128-0.0657,0.0128c-0.2559,0-0.5117-0.0977-0.707-0.293L3.9121,8.8574
	c-0.3906-0.3901-0.3906-1.0234,0-1.4141s1.0234-0.3906,1.4141,0l3.0222,3.0218l6.5165-6.5165C13.4426,2.2996,11.3434,1.25,9,1.25
	C4.7266,1.25,1.25,4.7266,1.25,9S4.7266,16.75,9,16.75s7.75-3.4766,7.75-7.75c0-1.1973-0.2809-2.3275-0.7677-3.3407L9.1221,12.5195z
	" fill="#8BAE46"/>
</svg>
