<?xml version="1.0" encoding="utf-8"?>
<!-- Generator: Adobe Illustrator 18.1.1, SVG Export Plug-In . SVG Version: 6.00 Build 0)  -->
<svg version="1.1" id="Layer_1" xmlns="http://www.w3.org/2000/svg" xmlns:xlink="http://www.w3.org/1999/xlink" x="0px" y="0px"
	 viewBox="0 0 18 18" enable-background="new 0 0 18 18" xml:space="preserve">
<g>
	<circle fill="#fff" cx="8.993" cy="13" r="1"/>
	<path fill="#fff" d="M16.299,3.639l-2.033-1.9591C14.143,1.565,13.98,1.5,13.813,1.5H3.135c-0.907,0-1.642,0.736-1.642,1.644
		l0.018,11.713c0,0.907,0.736,1.643,1.643,1.643h11.127c0.228,0,1.04-0.048,1.556-0.531c0.406-0.379,0.62-0.921,0.656-1.597
		c0.003-0.064,0.014-10.251,0.014-10.251C16.507,3.938,16.432,3.764,16.299,3.639z M8.993,15c-1.105,0-2-0.895-2-2.0001
		c0-1.1039,0.895-1.9999,2-1.9999c1.104,0,2,0.896,2,1.9999C10.993,14.105,10.097,15,8.993,15z M13.493,8.614
		c0,0.886-0.887,0.886-0.887,0.886H4.379c-0.886,0-0.886-0.886-0.886-0.886V4.386C3.493,3.5,4.379,3.5,4.379,3.5h8.227
		c0.887,0,0.887,0.886,0.887,0.886V8.614z"/>
</g>
</svg>
