<?xml version="1.0" encoding="utf-8"?>
<!-- Generator: Adobe Illustrator 18.1.1, SVG Export Plug-In . SVG Version: 6.00 Build 0)  -->
<svg version="1.1" id="Layer_1" xmlns="http://www.w3.org/2000/svg" xmlns:xlink="http://www.w3.org/1999/xlink" x="0px" y="0px"
	 viewBox="0 0 18 18" enable-background="new 0 0 18 18" xml:space="preserve">
<g>
	<g>
		<path fill="#fff" d="M13.5,9.625h-0.4709l-2.5134,2.5141c-0.4048,0.4048-0.9429,0.6279-1.5156,0.6279c-0.5723,0-1.1104-0.2231-1.5151-0.6279
			L4.9708,9.625H4.5c0,0-1.5,0-1.5,1.5v3c0,0,0,1.5,1.5,1.5h9c0,0,1.5,0,1.5-1.5v-3C15,11.125,15,9.625,13.5,9.625z"/>
	</g>
	<path fill="#fff" d="M12.3556,6.6246h-2.3555V3.375c0-0.5522-0.4478-1-1-1s-1,0.4478-1,1v3.2496H5.6446c-0.573,0-0.86,0.693-0.455,1.098
		l3.356,3.356c0.251,0.251,0.658,0.251,0.909,0l3.356-3.356C13.2156,7.3176,12.9286,6.6246,12.3556,6.6246z"/>
</g>
</svg>
