<?xml version="1.0" encoding="utf-8"?>
<!-- Generator: Adobe Illustrator 19.2.0, SVG Export Plug-In . SVG Version: 6.00 Build 0)  -->
<svg version="1.1" id="Layer_1" xmlns="http://www.w3.org/2000/svg" xmlns:xlink="http://www.w3.org/1999/xlink" x="0px" y="0px"
	 viewBox="0 0 18 18" enable-background="new 0 0 18 18" xml:space="preserve">
<g>
	<circle fill="#fff" cx="9" cy="9" r="4.5"/>
	<path fill="#fff" d="M13.42,5.3301c0.1924,0,0.3838-0.0732,0.5303-0.2197l0.707-0.707c0.293-0.293,0.293-0.7676,0-1.0605
		s-0.7676-0.293-1.0605,0l-0.707,0.707c-0.293,0.293-0.293,0.7676,0,1.0605C13.0362,5.2568,13.2276,5.3301,13.42,5.3301z"/>
	<path fill="#fff" d="M4.0498,12.8896l-0.707,0.707c-0.293,0.293-0.293,0.7676,0,1.0605c0.1465,0.1465,0.3379,0.2197,0.5303,0.2197
		s0.3838-0.0732,0.5303-0.2197l0.707-0.707c0.293-0.293,0.293-0.7676,0-1.0605S4.3428,12.5967,4.0498,12.8896z"/>
	<path fill="#fff" d="M4.0498,5.1104c0.1465,0.1465,0.3379,0.2197,0.5303,0.2197s0.3838-0.0732,0.5303-0.2197c0.293-0.293,0.293-0.7676,0-1.0605
		l-0.707-0.707c-0.293-0.293-0.7676-0.293-1.0605,0s-0.293,0.7676,0,1.0605L4.0498,5.1104z"/>
	<path fill="#fff" d="M13.9512,12.8901c-0.292-0.293-0.7666-0.2939-1.0605-0.001c-0.293,0.293-0.293,0.7676,0,1.0605l0.7061,0.707
		c0.1465,0.147,0.3379,0.2202,0.5303,0.2202c0.1914,0,0.3838-0.0732,0.5303-0.2192c0.293-0.293,0.293-0.7676,0-1.0605
		L13.9512,12.8901z"/>
	<path fill="#fff" d="M15.75,8.25h-0.5C14.836,8.25,14.5,8.5859,14.5,9s0.3359,0.75,0.75,0.75h0.5c0.4141,0,0.75-0.3359,0.75-0.75
		S16.1641,8.25,15.75,8.25z"/>
	<path fill="#fff" d="M3.5,9c0-0.4141-0.3359-0.75-0.75-0.75h-0.5C1.836,8.25,1.5,8.5859,1.5,9S1.836,9.75,2.25,9.75h0.5
		C3.1641,9.75,3.5,9.4141,3.5,9z"/>
	<path fill="#fff" d="M9,14.5c-0.4141,0-0.75,0.3359-0.75,0.75v0.5c0,0.4141,0.3359,0.75,0.75,0.75s0.75-0.3359,0.75-0.75v-0.5
		C9.75,14.8359,9.4141,14.5,9,14.5z"/>
	<path fill="#fff" d="M9,3.5c0.4141,0,0.75-0.3359,0.75-0.75v-0.5C9.75,1.8359,9.4141,1.5,9,1.5S8.25,1.8359,8.25,2.25v0.5
		C8.25,3.1641,8.586,3.5,9,3.5z"/>
</g>
</svg>
