<?xml version="1.0" encoding="utf-8"?>
<!-- Generator: Adobe Illustrator 19.2.0, SVG Export Plug-In . SVG Version: 6.00 Build 0)  -->
<svg version="1.1" id="Layer_1" xmlns="http://www.w3.org/2000/svg" xmlns:xlink="http://www.w3.org/1999/xlink" x="0px" y="0px"
	 viewBox="0 0 18 18" enable-background="new 0 0 18 18" xml:space="preserve">
<g>
	<path fill="#fff" d="M11.8822,3.4168c0.4302,0.8982,0.6782,1.9001,0.6782,2.9619c0,3.801-3.081,6.883-6.881,6.883
		c-1.0634,0-2.0665-0.2484-2.9655-0.6793C3.8218,14.8977,6.1795,16.5,8.9178,16.5c3.8,0,6.881-3.078,6.881-6.879
		C15.7989,6.8832,14.1965,4.5255,11.8822,3.4168z"/>
	<path fill="#fff" d="M7.4642,4.6205l0.612,1.896l1.993-0.004c0.169-0.001,0.239,0.216,0.102,0.315l-1.615,1.167l0.62,1.894
		c0.053,0.16-0.131,0.294-0.268,0.194l-1.61-1.174l-1.61,1.174c-0.136,0.1-0.32-0.034-0.268-0.194l0.621-1.894l-1.616-1.167
		c-0.136-0.099-0.066-0.316,0.103-0.315l1.993,0.004l0.612-1.896C7.1852,4.4596,7.4122,4.4596,7.4642,4.6205"/>
	<path fill="#fff" d="M4.1396,1.575l0.381,1.181l1.242-0.002c0.105,0,0.149,0.134,0.064,0.196l-1.006,0.727l0.386,1.18
		c0.033,0.1-0.082,0.184-0.167,0.122l-1.003-0.732l-1.003,0.732c-0.085,0.062-0.2-0.022-0.167-0.122l0.386-1.18L2.2466,2.95
		c-0.086-0.062-0.042-0.196,0.064-0.196l1.241,0.002l0.382-1.181C3.9656,1.4751,4.1076,1.4751,4.1396,1.575"/>
</g>
</svg>
