<?xml version="1.0" encoding="utf-8"?>
<!-- Generator: Adobe Illustrator 19.1.0, SVG Export Plug-In . SVG Version: 6.00 Build 0)  -->
<svg version="1.1" id="Layer_1" xmlns="http://www.w3.org/2000/svg" xmlns:xlink="http://www.w3.org/1999/xlink" x="0px" y="0px"
	 viewBox="0 0 18 18" style="enable-background:new 0 0 18 18;" xml:space="preserve">
<g>
	<path fill="#00000061" d="M9.0002,5.6848C6.7188,5.6848,4.3832,5.1964,3,4.5381v2.5812c0.4543,0.3674,2.8017,1.3232,6.0002,1.3232
		c3.285,0,5.6691-1.0216,5.9998-1.3575V4.5279C13.567,5.2189,11.1004,5.6848,9.0002,5.6848z M12.25,7.5016
		c-0.414,0-0.75-0.336-0.75-0.75s0.336-0.75,0.75-0.75S13,6.3376,13,6.7516S12.664,7.5016,12.25,7.5016z"/>
	<path fill="#00000061" d="M14.8393,3.1915c-0.6113-0.995-2.9932-1.7401-5.8391-1.7401c-2.8615,0-5.2523,0.7534-5.8474,1.7567
		c0.6757,0.4132,2.8865,1.2267,5.8474,1.2267C11.9825,4.4348,14.2044,3.598,14.8393,3.1915z"/>
	<path fill="#00000061" d="M3,12.5538v2.2543c0.6118,0.9945,3.0674,1.7405,6.0002,1.7405c2.9326,0,5.3887-0.7464,5.9998-1.7412v-2.2639
		c-1.433,0.691-3.8996,1.1569-5.9998,1.1569C6.7188,13.7004,4.3832,13.212,3,12.5538z M12.25,13.9509c0.414,0,0.75,0.336,0.75,0.75
		s-0.336,0.75-0.75,0.75s-0.75-0.336-0.75-0.75S11.836,13.9509,12.25,13.9509z"/>
	<path fill="#00000061" d="M3,8.546v2.5812c0.4543,0.3674,2.8017,1.3232,6.0002,1.3232c3.285,0,5.6691-1.0216,5.9998-1.3575V8.5357
		c-1.433,0.691-3.8996,1.1569-5.9998,1.1569C6.7188,9.6926,4.3832,9.2042,3,8.546z M12.25,9.9509c0.414,0,0.75,0.336,0.75,0.75
		s-0.336,0.75-0.75,0.75s-0.75-0.336-0.75-0.75S11.836,9.9509,12.25,9.9509z"/>
</g>
</svg>
