<?xml version="1.0" encoding="utf-8"?>
<!-- Generator: Adobe Illustrator 19.1.0, SVG Export Plug-In . SVG Version: 6.00 Build 0)  -->
<svg version="1.1" id="Layer_1" xmlns="http://www.w3.org/2000/svg" xmlns:xlink="http://www.w3.org/1999/xlink" x="0px" y="0px"
	 viewBox="0 0 18 18" style="enable-background:new 0 0 18 18;" xml:space="preserve">
<style type="text/css">
	.st0{fill:#1E74BB;}
</style>
<g>
	<path fill="#fff" d="M4.25,13.9998h2c0,0,0.5,0,0.5-0.5v-1.5c0,0,0-0.5-0.5-0.5h-2c0,0-0.5,0-0.5,0.5v1.5
		C3.75,13.4998,3.75,13.9998,4.25,13.9998z"/>
	<path fill="#fff" d="M12.25,6.9998v6.5c0,0,0,0.5,0.5,0.5h2c0,0,0.5,0,0.5-0.5v-6.5c0,0,0-0.5-0.5-0.5h-2
		C12.75,6.4998,12.25,6.4998,12.25,6.9998z"/>
	<path fill="#fff" d="M8.5,9.4998c0,0-0.5,0-0.5,0.5v3.5c0,0,0,0.5,0.5,0.5h2c0,0,0.5,0,0.5-0.5v-3.5c0,0,0-0.5-0.5-0.5H8.5z"/>
	<path fill="#fff" d="M16.125,14.9999h-13.5v-12.5c0-0.4141-0.3359-0.75-0.75-0.75s-0.75,0.3359-0.75,0.75v14h15c0.4141,0,0.75-0.3359,0.75-0.75
		S16.5391,14.9999,16.125,14.9999z"/>
	<path fill="#fff" d="M5.125,10.2499c0.1919,0,0.3838-0.0732,0.5303-0.2197l5.7771-5.7771l0.9176,0.918c0.255,0.254,0.69,0.074,0.69-0.286
		v-2.981c0-0.223-0.181-0.404-0.404-0.404H9.655c-0.36,0-0.54,0.435-0.286,0.689l1.003,1.0033L4.5947,8.9697
		c-0.293,0.293-0.293,0.7676,0,1.0605C4.7412,10.1767,4.9331,10.2499,5.125,10.2499z"/>
</g>
</svg>
