<?xml version="1.0" encoding="utf-8"?>
<!-- Generator: Adobe Illustrator 19.1.0, SVG Export Plug-In . SVG Version: 6.00 Build 0)  -->
<svg version="1.1" id="Layer_1" xmlns="http://www.w3.org/2000/svg" xmlns:xlink="http://www.w3.org/1999/xlink" x="0px" y="0px"
	 viewBox="0 0 18 18" style="enable-background:new 0 0 18 18;" xml:space="preserve">
<path d="M9,1.25C4.7266,1.25,1.25,4.7266,1.25,9S4.7266,16.75,9,16.75s7.75-3.4766,7.75-7.75S13.2734,1.25,9,1.25z M4.8461,10.9237
	l-1.2319,1.2319C3.0686,11.228,2.75,10.1517,2.75,9c0-1.1151,0.2971-2.1606,0.8109-3.0679l1.3235,1.3234
	c-0.2609,0.5715-0.4152,1.201-0.4152,1.869C4.4692,9.7642,4.6059,10.3714,4.8461,10.9237z M9,15.25
	c-1.0222,0-1.9851-0.2515-2.8378-0.6885l1.2181-1.2182C7.8849,13.5379,8.4277,13.6558,9,13.6558
	c0.6682,0,1.2979-0.1543,1.8694-0.4152l1.1985,1.1985C11.1606,14.9529,10.1151,15.25,9,15.25z M5.9692,9.1245
	c0-1.6704,1.3594-3.0298,3.0308-3.0298s3.0308,1.3594,3.0308,3.0298c0,1.6714-1.3594,3.0312-3.0308,3.0312
	S5.9692,10.7959,5.9692,9.1245z M10.7985,4.9713C10.2463,4.7313,9.6394,4.5947,9,4.5947c-0.5418,0-1.0547,0.1113-1.5367,0.2866
	L6.0665,3.4846C6.942,3.0171,7.9401,2.75,9,2.75c1.1517,0,2.228,0.3186,3.1556,0.8642L10.7985,4.9713z M13.2441,10.6615
	c0.1753-0.4821,0.2866-0.9951,0.2866-1.537c0-0.5724-0.1179-1.1152-0.3126-1.6198l1.343-1.3432C14.9984,7.0144,15.25,7.9775,15.25,9
	c0,1.0597-0.267,2.0576-0.7343,2.9329L13.2441,10.6615z" fill="#00C7FD"/>
</svg>
