<?xml version="1.0" encoding="UTF-8" standalone="no"?>
<svg
   xmlns:dc="http://purl.org/dc/elements/1.1/"
   xmlns:cc="http://creativecommons.org/ns#"
   xmlns:rdf="http://www.w3.org/1999/02/22-rdf-syntax-ns#"
   xmlns:svg="http://www.w3.org/2000/svg"
   xmlns="http://www.w3.org/2000/svg"
   xmlns:sodipodi="http://sodipodi.sourceforge.net/DTD/sodipodi-0.dtd"
   xmlns:inkscape="http://www.inkscape.org/namespaces/inkscape"
   version="1.1"
   id="Layer_1"
   x="0px"
   y="0px"
   viewBox="0 0 18 18"
   enable-background="new 0 0 18 18"
   xml:space="preserve"
   sodipodi:docname="model-folder.svg"
   inkscape:version="1.0 (4035a4f, 2020-05-01)"><metadata
   id="metadata840"><rdf:RDF><cc:Work
       rdf:about=""><dc:format>image/svg+xml</dc:format><dc:type
         rdf:resource="http://purl.org/dc/dcmitype/StillImage" /><dc:title /></cc:Work></rdf:RDF></metadata><defs
   id="defs838" /><sodipodi:namedview
   inkscape:document-rotation="0"
   pagecolor="#ffffff"
   bordercolor="#666666"
   borderopacity="1"
   objecttolerance="10"
   gridtolerance="10"
   guidetolerance="10"
   inkscape:pageopacity="0"
   inkscape:pageshadow="2"
   inkscape:window-width="2560"
   inkscape:window-height="1412"
   id="namedview836"
   showgrid="false"
   inkscape:zoom="33.722222"
   inkscape:cx="1.8978583"
   inkscape:cy="9"
   inkscape:window-x="0"
   inkscape:window-y="28"
   inkscape:window-maximized="0"
   inkscape:current-layer="Layer_1" />
<path
   fill="#231F20"
   d="M16.5063,5.4434C16.478,4.6709,15.8149,4.042,15.0288,4.042H8.4497V3.5532  c0-0.8569-0.6973-1.5542-1.5537-1.5542H3.0171c-0.8555,0-1.5264,0.6826-1.5264,1.5542v11.0659c0,0.7583,0.5459,1.3125,1.3594,1.3794  l0.0312,0.0024l12.1475-0.0029c0.7734,0,1.4229-0.6055,1.4805-1.4321L16.5063,5.4434z"
   id="path833"
   style="fill:#005b85;fill-opacity:1" />
<path
   id="path842"
   d="m 15.914585,13.096423 -1.533813,-1.533748 0.570149,-0.570148 c 0.201581,-0.209746 0.321178,-0.571112 -0.0066,-0.901099 L 13.110754,8.2588762 c -0.137538,-0.126214 -0.288836,-0.1902628 -0.449265,-0.1902628 -0.245497,0 -0.397501,0.152905 -0.446434,0.2022228 l -1.834157,1.8351218 c -0.198816,0.225436 -0.298352,0.578637 0.01814,0.893193 l 0.563526,0.563396 -1.8360226,1.83615 -0.6476937,1.29e-4 c -0.577993,0.0157 -0.9513188,0.394353 -0.9513188,0.964179 v 1.936845 c 0.014146,0.581142 0.3924866,0.956654 0.9644996,0.956654 h 1.9346585 0.0057 c 0.578956,-0.0135 0.953183,-0.392165 0.953183,-0.9645 v -1.940316 c -0.01305,-0.54835 -0.376671,-0.914796 -0.905474,-0.942702 l 1.164538,-1.164602 0.588924,0.588667 c 0.136251,0.124353 0.286006,0.187434 0.445212,0.187434 h 3.22e-4 c 0.246784,0 0.398725,-0.154127 0.446756,-0.202802 l 0.573043,-0.573042 1.073681,1.073618 c -0.671679,0.347991 -1.136567,1.041659 -1.136567,1.848817 0,1.152256 0.937495,2.08975 2.08975,2.08975 1.152256,0 2.08975,-0.937494 2.08975,-2.08975 0,-1.08757 -0.838215,-1.973431 -1.900901,-2.070653 z"
   style="fill:#7bdeff;fill-opacity:1;stroke-width:0.643" /></svg>
