<?xml version="1.0" encoding="utf-8"?>
<!-- Generator: Adobe Illustrator 19.2.0, SVG Export Plug-In . SVG Version: 6.00 Build 0)  -->
<svg version="1.1" id="Layer_1" xmlns="http://www.w3.org/2000/svg" xmlns:xlink="http://www.w3.org/1999/xlink" x="0px" y="0px"
	 viewBox="0 0 18 18" enable-background="new 0 0 18 18" xml:space="preserve">
<g>
	<polygon points="13.25,14.5 10.75,14.5 10.75,9.5001 7.25,9.5001 7.25,14.5 4.75,14.5 4.75,9.5605 3.25,11.0605 3.25,16 14.75,16 
		14.75,11.0605 13.25,9.5605 	"/>
	<path d="M16.5303,9.5303L9,2L6.4999,4.5001v-2h-2v4L1.4697,9.5303c-0.293,0.293-0.293,0.7676,0,1.0605s0.7676,0.293,1.0605,0
		L9,4.1211l6.4697,6.4697c0.1465,0.1465,0.3384,0.2197,0.5303,0.2197s0.3838-0.0732,0.5303-0.2197
		C16.8232,10.2979,16.8232,9.8232,16.5303,9.5303z"/>
</g>
</svg>
