<?xml version="1.0" encoding="utf-8"?>
<!-- Generator: Adobe Illustrator 18.1.1, SVG Export Plug-In . SVG Version: 6.00 Build 0)  -->
<svg version="1.1" id="Layer_1" xmlns="http://www.w3.org/2000/svg" xmlns:xlink="http://www.w3.org/1999/xlink" x="0px" y="0px"
	 viewBox="0 0 18 18" enable-background="new 0 0 18 18" xml:space="preserve">
<path fill="#FFA300" d="M16.5694,12.5122l-5.2964-9.458c-0.416-0.7461-1.2451-1.5439-2.3228-1.5439
	c-0.6328,0-1.5366,0.2676-2.2495,1.543l-5.2974,9.46c-0.1426,0.2549-0.8169,1.5879-0.1167,2.7822
	c0.2607,0.4453,0.9258,1.1943,2.4482,1.1943h10.5029c0.292,0,1.7837-0.0605,2.4868-1.2588
	C16.9854,14.7847,17.3121,13.8374,16.5694,12.5122z M8.127,4.4644c0-0.4834,0.3916-0.875,0.875-0.875s0.875,0.3916,0.875,0.875
	v5.875c0,0.4834-0.3916,0.875-0.875,0.875s-0.875-0.3916-0.875-0.875V4.4644z M8.9741,14.9392c-0.642,0-1.162-0.5209-1.162-1.162
	c0-0.643,0.52-1.163,1.162-1.163s1.163,0.52,1.163,1.163C10.1371,14.4183,9.6161,14.9392,8.9741,14.9392z"/>
</svg>
