<?xml version="1.0" encoding="utf-8"?>
<!-- Generator: Adobe Illustrator 18.1.1, SVG Export Plug-In . SVG Version: 6.00 Build 0)  -->
<svg version="1.1" id="Layer_1" xmlns="http://www.w3.org/2000/svg" xmlns:xlink="http://www.w3.org/1999/xlink" x="0px" y="0px"
	 viewBox="0 0 18 18" enable-background="new 0 0 18 18" xml:space="preserve">
<g>
	<path d="M9,1.25C4.7266,1.25,1.25,4.7266,1.25,9S4.7266,16.75,9,16.75s7.75-3.4766,7.75-7.75S13.2734,1.25,9,1.25z M9,15.25
		c-3.4463,0-6.25-2.8037-6.25-6.25S5.5537,2.75,9,2.75S15.25,5.5537,15.25,9S12.4463,15.25,9,15.25z"/>
	<path d="M13.2744,8.25l-3.525-0.0004L9.749,4.7251c0-0.4141-0.3359-0.75-0.75-0.75s-0.75,0.3359-0.75,0.75l0.0004,3.5244
		L4.7256,8.249c-0.4141,0-0.75,0.3359-0.75,0.75s0.3359,0.75,0.75,0.75l3.524,0.0004L8.25,13.2739c0,0.4141,0.3359,0.75,0.75,0.75
		s0.75-0.3359,0.75-0.75L9.7496,9.7496L13.2744,9.75c0.4141,0,0.75-0.3359,0.75-0.75S13.6885,8.25,13.2744,8.25z"/>
</g>
</svg>
