<?xml version="1.0" encoding="utf-8"?>
<!-- Generator: Adobe Illustrator 19.2.0, SVG Export Plug-In . SVG Version: 6.00 Build 0)  -->
<svg version="1.1" id="Layer_1" xmlns="http://www.w3.org/2000/svg" xmlns:xlink="http://www.w3.org/1999/xlink" x="0px" y="0px"
	 viewBox="0 0 18 18" enable-background="new 0 0 18 18" xml:space="preserve">
<path fill="#005B85" d="M9.0093,16c0.4834,0,0.875-0.3926,0.876-0.876l0,0V4.9882l3.711,3.711c0.3427,0.3428,0.8974,0.3408,1.2392,0
	c0.3428-0.3428,0.3428-0.8985,0-1.2403L9.6323,2.2558C9.4614,2.0849,9.2368,2,9.0123,2C9.0083,2,9.0044,2.0019,9.0005,2.0019
	C8.9956,2.0019,8.9917,2,8.9878,2C8.7633,2,8.5395,2.0849,8.3676,2.2558L3.1635,7.458c-0.3418,0.3427-0.3418,0.8984,0.002,1.2412
	c0.3428,0.3428,0.8975,0.3428,1.2393,0l3.7294-3.7276V15.124l0,0C8.1343,15.6074,8.5258,16,9.0093,16z"/>
</svg>
