<?xml version="1.0" encoding="utf-8"?>
<!-- Generator: Adobe Illustrator 19.2.0, SVG Export Plug-In . SVG Version: 6.00 Build 0)  -->
<svg version="1.1" id="Layer_1" xmlns="http://www.w3.org/2000/svg" xmlns:xlink="http://www.w3.org/1999/xlink" x="0px" y="0px"
	 viewBox="0 0 18 18" enable-background="new 0 0 18 18" xml:space="preserve">
<path fill="#231F20" d="M16,8.9907c0-0.4834-0.3926-0.875-0.876-0.8755l0,0H4.9883l3.7109-3.7114
	c0.3428-0.3423,0.3408-0.8975,0-1.2393c-0.3428-0.3428-0.8984-0.3428-1.2402,0L2.2558,8.3676C2.0849,8.539,2,8.7636,2,8.9882
	C2,8.9917,2.0019,8.9961,2.0019,9C2.0019,9.0044,2,9.0083,2,9.0122c0,0.2246,0.0849,0.4487,0.2558,0.6201l5.2022,5.2041
	c0.3428,0.3418,0.8984,0.3418,1.2412-0.0015c0.3428-0.3428,0.3428-0.8979,0-1.2397l-3.7275-3.729H15.124l0,0
	C15.6074,9.8662,16,9.4741,16,8.9907z"/>
</svg>
