<?xml version="1.0" encoding="utf-8"?>
<!-- Generator: Adobe Illustrator 18.1.1, SVG Export Plug-In . SVG Version: 6.00 Build 0)  -->
<svg version="1.1" id="Layer_1" xmlns="http://www.w3.org/2000/svg" xmlns:xlink="http://www.w3.org/1999/xlink" x="0px" y="0px"
	 viewBox="0 0 18 18" enable-background="new 0 0 18 18" xml:space="preserve">
<g>
	<path fill="#231F20" d="M16.7327,8.2451c-0.0273-0.4131-0.3926-0.7256-0.7979-0.6982c-0.4131,0.0273-0.7256,0.3848-0.6982,0.7979
		c0.123,1.8555-0.5537,3.6797-1.8555,5.0059c-1.1992,1.2246-2.7832,1.8994-4.46,1.8994c0,0,0,0-0.001,0
		c-1.5529,0-3.0071-0.5901-4.1252-1.6562l1.1765-1.1765c0.28-0.2789,0.0811-0.7579-0.314-0.7579h-3.278
		c-0.2451,0-0.444,0.199-0.444,0.444v3.278c0,0.396,0.478,0.594,0.758,0.314l1.0413-1.0413c1.4014,1.3497,3.2308,2.096,5.1854,2.096
		c0.001,0,0.001,0,0.002,0c2.082,0,4.0469-0.835,5.5303-2.3486C16.053,12.7705,16.8841,10.5273,16.7327,8.2451z"/>
	<path fill="#231F20" d="M2.0755,10.5029c0.4131-0.0312,0.7227-0.3906,0.6924-0.8037C2.6282,7.8311,3.303,5.9902,4.6175,4.6484
		C5.8186,3.4238,7.4026,2.75,9.0794,2.75c1.5937,0,3.0845,0.6179,4.2132,1.7357l-1.152,1.1517
		c-0.28,0.2799-0.082,0.7589,0.314,0.7589h3.278c0.245,0,0.444-0.199,0.444-0.444v-3.278c0-0.3959-0.479-0.5939-0.758-0.314
		l-1.0656,1.0653C12.9411,2.0239,11.0738,1.25,9.0794,1.25c-2.083,0-4.0479,0.834-5.5332,2.3477
		C1.93,5.248,1.1009,7.5127,1.2718,9.8105c0.0293,0.3945,0.3584,0.6943,0.7471,0.6943C2.0374,10.5049,2.0569,10.5039,2.0755,10.5029
		z"/>
</g>
</svg>
