<?xml version="1.0" encoding="utf-8"?>
<!-- Generator: Adobe Illustrator 18.1.1, SVG Export Plug-In . SVG Version: 6.00 Build 0)  -->
<svg version="1.1" id="Layer_1" xmlns="http://www.w3.org/2000/svg" xmlns:xlink="http://www.w3.org/1999/xlink" x="0px" y="0px"
	 viewBox="0 0 18 18" enable-background="new 0 0 18 18" xml:space="preserve">
<path fill="#fff" d="M9,1.25C4.72,1.25,1.25,4.72,1.25,9C1.25,13.28,4.72,16.75,9,16.75S16.75,13.28,16.75,9C16.75,4.72,13.28,1.25,9,1.25z
	 M14.15,9.7498H9.7496v4.3999c0,0.4141-0.3359,0.75-0.75,0.75s-0.75-0.3359-0.75-0.75V9.7498H3.8502
	c-0.4141,0-0.75-0.3359-0.75-0.75s0.3359-0.75,0.75-0.75h4.3994V3.849c0-0.4141,0.3359-0.75,0.75-0.75s0.75,0.3359,0.75,0.75v4.4009
	H14.15c0.4141,0,0.75,0.3359,0.75,0.75S14.564,9.7498,14.15,9.7498z"/>
</svg>
