<?xml version="1.0" encoding="utf-8"?>
<!-- Generator: Adobe Illustrator 18.1.1, SVG Export Plug-In . SVG Version: 6.00 Build 0)  -->
<svg version="1.1" id="Layer_1" xmlns="http://www.w3.org/2000/svg" xmlns:xlink="http://www.w3.org/1999/xlink" x="0px" y="0px"
	 viewBox="0 0 18 18" enable-background="new 0 0 18 18" xml:space="preserve">
<path fill="#00000061" d="M16.2268,10.4413c0.4048-0.3194,0.74-0.7875,0.7745-1.3952c0.0221-0.3768-0.0621-1.0423-0.7697-1.6004
	c0.3685-0.285,0.757-0.7519,0.757-1.4553c0-0.3594-0.1279-1.25-1.3154-1.7588l-5.1641-2.2212
	c-0.1641-0.0698-0.7607-0.2979-1.542-0.2979c-0.5195,0-1.0176,0.1006-1.4785,0.2988l-5.165,2.2207
	C1.5013,4.5876,1.0101,5.2556,1.0101,6.0193c0,0.2914,0.0947,0.9305,0.7631,1.4338c-0.4423,0.3664-0.8128,0.926-0.7748,1.6277
	c0.0218,0.3445,0.1664,0.9167,0.7735,1.3734c-0.4418,0.3663-0.8115,0.9257-0.7735,1.6266c0.0273,0.4326,0.2354,1.2275,1.3291,1.6968
	L7.4906,15.99c0.1641,0.0698,0.7588,0.2974,1.541,0.2974c0.5195,0,1.0166-0.1006,1.4785-0.2979l5.1611-2.2124
	c0.6104-0.2622,1.2803-0.8555,1.3301-1.731C17.0235,11.6684,16.9394,11.0003,16.2268,10.4413z M2.9193,9.3987
	C2.5101,9.2239,2.4993,9.0471,2.4964,8.9939C2.4866,8.8113,2.681,8.6145,2.8675,8.5085l0.5-0.2858l4.1191,1.7648
	c0.1152,0.0503,0.7314,0.2993,1.5439,0.2993c0.5205,0,1.0176-0.1001,1.4785-0.2979l4.1224-1.7665l0.4996,0.2855
	c0.2559,0.1465,0.3809,0.2983,0.3721,0.4517c-0.0098,0.1812-0.2266,0.3545-0.4238,0.439l-5.1602,2.2119
	c-0.2734,0.1172-0.5723,0.1768-0.8877,0.1768c-0.5312,0-0.9365-0.1699-0.9512-0.1768L2.9193,9.3987z M2.9173,5.6096l5.1631-2.2202
	c0.2734-0.1172,0.5723-0.1768,0.8867-0.1768c0.5215,0,0.9111,0.1597,0.9521,0.1768l5.1621,2.2207
	c0.2705,0.1157,0.4072,0.2437,0.4072,0.3804c0,0.23-0.3916,0.4009-0.4072,0.4077L9.9193,8.6101
	C9.6449,8.7273,9.347,8.7869,9.0306,8.7869c-0.5371,0-0.9443-0.1738-0.9512-0.1768L2.9173,6.3982
	c-0.1855-0.0796-0.4072-0.21-0.4072-0.3789C2.5101,5.7883,2.9017,5.6165,2.9173,5.6096z M15.0794,12.3987l-5.1602,2.2119
	c-0.2734,0.1172-0.5723,0.1768-0.8877,0.1768c-0.5312,0-0.9365-0.1699-0.9512-0.1768l-5.1611-2.2119
	c-0.4092-0.1748-0.4199-0.3516-0.4229-0.4048c-0.0097-0.1826,0.1846-0.3794,0.3711-0.4854L3.367,11.223l4.1235,1.767
	c0.1641,0.0698,0.7588,0.2974,1.541,0.2974c0.5195,0,1.0166-0.1006,1.4785-0.2979l4.1217-1.7668l0.4994,0.2854
	c0.2559,0.1465,0.3809,0.2983,0.3721,0.4517C15.4935,12.1409,15.2767,12.3142,15.0794,12.3987z"/>
</svg>
