<?xml version="1.0" encoding="utf-8"?>
<!-- Generator: Adobe Illustrator 18.1.1, SVG Export Plug-In . SVG Version: 6.00 Build 0)  -->
<svg version="1.1" id="Layer_1" xmlns="http://www.w3.org/2000/svg" xmlns:xlink="http://www.w3.org/1999/xlink" x="0px" y="0px"
	 viewBox="0 0 18 18" enable-background="new 0 0 18 18" xml:space="preserve">
<path fill="#53565a" d="M16.9805,8.7781C16.708,7.677,13.2012,4.4939,9,4.4939c-4.2603,0-7.7363,3.2588-7.9854,4.3862L0.9766,9.052l0.0425,0.1704
	C1.2925,10.324,4.8003,13.5061,9,13.5061c4.2593,0,7.7354-3.2578,7.9854-4.3853l0.0381-0.1719L16.9805,8.7781z M2.5933,9.0315
	c0.4661-0.6378,2.0385-2.0143,4.1254-2.6722C5.9783,7.0011,5.5002,7.937,5.5002,8.9937c0,1.0719,0.4921,2.0193,1.2511,2.6613
	C4.6023,10.9942,3.039,9.5779,2.5933,9.0315z M11.2544,11.6506c0.7559-0.642,1.2458-1.5875,1.2458-2.6569
	c0-1.0621-0.4831-2.002-1.23-2.6439c2.139,0.6634,3.6923,2.0735,4.1366,2.6187C14.9382,9.6091,13.3546,10.9962,11.2544,11.6506z"/>
</svg>
