<?xml version="1.0" encoding="utf-8"?>
<!-- Generator: Adobe Illustrator 18.1.1, SVG Export Plug-In . SVG Version: 6.00 Build 0)  -->
<svg version="1.1" id="Layer_1" xmlns="http://www.w3.org/2000/svg" xmlns:xlink="http://www.w3.org/1999/xlink" x="0px" y="0px"
	 viewBox="0 0 18 18" enable-background="new 0 0 18 18" xml:space="preserve">
<g>
	<path fill="#b1babf" d="M15.9951,1.455H11.245V1.2941c0,0,0-0.8391-0.84-0.8391H8.084c0,0-0.839,0-0.839,0.8391V1.455H2.4951
		c-0.4141,0-0.75,0.3359-0.75,0.75s0.3359,0.75,0.75,0.75H2.745v0.0001v12c0,0,0,1.5,1.5,1.5h10c0,0,1.5,0,1.5-1.5v-12V2.955h0.2501
		c0.4141,0,0.75-0.3359,0.75-0.75S16.4092,1.455,15.9951,1.455z M14.245,14.9551h-10v-12h10V14.9551z"/>
	<path fill="#b1babf" d="M9.2451,13.955c0.3452,0,0.625-0.2798,0.625-0.625V4.58c0-0.3452-0.2798-0.625-0.625-0.625
		s-0.625,0.2798-0.625,0.625v8.75C8.6201,13.6752,8.8999,13.955,9.2451,13.955z"/>
	<path fill="#b1babf" d="M12.3701,13.955c0.3452,0,0.625-0.2798,0.625-0.625V4.58c0-0.3452-0.2798-0.625-0.625-0.625
		s-0.625,0.2798-0.625,0.625v8.75C11.7451,13.6752,12.0249,13.955,12.3701,13.955z"/>
	<path fill="#b1babf" d="M6.1201,13.955c0.3452,0,0.625-0.2798,0.625-0.625V4.58c0-0.3452-0.2798-0.625-0.625-0.625
		s-0.625,0.2798-0.625,0.625v8.75C5.4951,13.6752,5.7749,13.955,6.1201,13.955z"/>
</g>
</svg>
