<?xml version="1.0" encoding="utf-8"?>
<!-- Generator: Adobe Illustrator 18.1.1, SVG Export Plug-In . SVG Version: 6.00 Build 0)  -->
<svg version="1.1" id="Layer_1" xmlns="http://www.w3.org/2000/svg" xmlns:xlink="http://www.w3.org/1999/xlink" x="0px" y="0px"
	 viewBox="0 0 18 18" enable-background="new 0 0 18 18" xml:space="preserve">
<g>
	<path fill="#fff" d="M5.06,8.9996l4.5847-4.5843c0.3408-0.3418,0.3408-0.8955,0-1.2373c-0.3418-0.3418-0.8965-0.3418-1.2383,0L3.2151,8.3689
		c-0.1735,0.174-0.2564,0.4026-0.2533,0.6306c-0.0031,0.228,0.0798,0.4566,0.2533,0.6306l5.1914,5.1919
		c0.1709,0.1709,0.3955,0.2563,0.6191,0.2563s0.4482-0.0854,0.6191-0.2563c0.3408-0.3418,0.3408-0.8955,0-1.2373L5.06,8.9996z"/>
	<path fill="#fff" d="M10.1964,8.9991l4.5851-4.5838c0.3418-0.3413,0.3428-0.8955,0.001-1.2373s-0.8975-0.3418-1.2373,0L8.3528,8.3689
		c-0.1742,0.174-0.2575,0.403-0.2544,0.6312c-0.003,0.2277,0.0801,0.4562,0.2534,0.6301l5.1924,5.1919
		c0.1709,0.1709,0.3955,0.2563,0.6191,0.2563s0.4482-0.0854,0.6191-0.2563c0.3408-0.3418,0.3408-0.8955,0-1.2373L10.1964,8.9991z"/>
</g>
</svg>
