<?xml version="1.0" encoding="utf-8"?>
<!-- Generator: Adobe Illustrator 19.2.0, SVG Export Plug-In . SVG Version: 6.00 Build 0)  -->
<svg version="1.1" id="Layer_1" xmlns="http://www.w3.org/2000/svg" xmlns:xlink="http://www.w3.org/1999/xlink" x="0px" y="0px"
	 viewBox="0 0 18 18" enable-background="new 0 0 18 18" xml:space="preserve">
<path fill="#231F20" d="M2,9.0093c0,0.4834,0.3926,0.875,0.876,0.8755l0,0h10.1357l-3.7109,3.7114
	c-0.3428,0.3423-0.3409,0.8975,0,1.2393c0.3427,0.3428,0.8984,0.3428,1.2402,0l5.2031-5.2031C15.915,9.461,16,9.2364,16,9.0118
	c0-0.0034-0.002-0.0078-0.002-0.0117C15.998,8.9957,16,8.9918,16,8.9879c0-0.2247-0.085-0.4488-0.2559-0.6202L10.542,3.1636
	c-0.3428-0.3418-0.8985-0.3418-1.2412,0.0015c-0.3428,0.3428-0.3428,0.8979,0,1.2397l3.7275,3.729H2.876l0,0
	C2.3926,8.1338,2,8.5259,2,9.0093z"/>
</svg>
