<?xml version="1.0" encoding="utf-8"?>
<!-- Generator: Adobe Illustrator 18.1.1, SVG Export Plug-In . SVG Version: 6.00 Build 0)  -->
<svg version="1.1" id="Layer_1" xmlns="http://www.w3.org/2000/svg" xmlns:xlink="http://www.w3.org/1999/xlink" x="0px" y="0px"
	 viewBox="0 0 18 18" enable-background="new 0 0 18 18" xml:space="preserve">
<g>
	<path fill="#b1babf" d="M6.0001,4.5v-3H1.9999l0.001,10.0322C2.0195,11.9785,2.2929,12.5,2.9999,12.5h4v-7C6.0001,5.4999,6.0001,4.5,6.0001,4.5z"
		/>
	<path fill="#b1babf" d="M7.0001,1.5v2c0,0,0,1,1,1h2L7.0001,1.5z"/>
	<path fill="#b1babf" d="M13.0001,9.5c-1,0-1-1-1-1v-3H7.9999l0.001,10.0322C8.0195,15.9785,8.2929,16.5,8.9999,16.5h6.0166l0.0166-0.001
		c0.4463-0.02,0.9668-0.2935,0.9668-0.999l-0.0007-6H13.0001z"/>
	<path fill="#b1babf" d="M13.0001,5.5v2c0,0,0,1,1,1h2L13.0001,5.5z"/>
</g>
</svg>
