<?xml version="1.0" encoding="utf-8"?>
<!-- Generator: Adobe Illustrator 19.1.0, SVG Export Plug-In . SVG Version: 6.00 Build 0)  -->
<svg version="1.1" id="Layer_1" xmlns="http://www.w3.org/2000/svg" xmlns:xlink="http://www.w3.org/1999/xlink" x="0px" y="0px"
	 viewBox="0 0 18 18" style="enable-background:new 0 0 18 18;" xml:space="preserve">
<style type="text/css">
	.st0{fill:#1E74BB;}
</style>
<g>
	<rect fill="#333" x="5.75" y="8.5" width="1" height="1"/>
	<rect fill="#333" x="5.75" y="13" width="1" height="1"/>
	<path fill="#333" d="M15.4995,2.4805C15.4766,1.5811,14.8877,1,14,1L3.9844,1.0005C3.0825,1.0269,2.5,1.6157,2.5,2.5v13.0186
		C2.5225,16.4185,3.1108,17,4,17h10.0088h0.0088C14.918,16.979,15.5,16.3901,15.5,15.5L15.4995,2.4805z M7.75,15h-3v-3h3V15z
		 M7.75,10.5h-3v-3h3V10.5z M5.9541,6.1221l-1.3677-1.377l0.7754-0.7715l0.5928,0.5977l1.6831-1.6909l0.7764,0.7705L5.9541,6.1221z
		 M13.25,14.25H9.5v-1.5h3.75V14.25z M13.25,9.75H9.5v-1.5h3.75V9.75z M13.25,5.25H9.5v-1.5h3.75V5.25z"/>
</g>
</svg>
