<?xml version="1.0" encoding="utf-8"?>
<!-- Generator: Adobe Illustrator 18.1.1, SVG Export Plug-In . SVG Version: 6.00 Build 0)  -->
<svg version="1.1" id="Layer_1" xmlns="http://www.w3.org/2000/svg" xmlns:xlink="http://www.w3.org/1999/xlink" x="0px" y="0px"
	 viewBox="0 0 18 18" enable-background="new 0 0 18 18" xml:space="preserve">
<g>
	<path fill="#fff" d="M15.5,3L2.4844,3.0005C1.583,3.0269,1,3.6157,1,4.5v9.0195C1.0234,14.4189,1.6123,15,2.5,15h13.0088h0.0088
		C16.418,14.979,17,14.3901,17,13.5V4.4805C16.9766,3.5811,16.3877,3,15.5,3z M15.4941,13.5c-0.002,0-0.0029,0-0.0049,0L2.5,13.4937
		L2.5059,4.5h0.001L15.5,4.5063L15.4941,13.5z"/>
	<path fill="#fff" d="M4,12.751c0.1924,0,0.3838-0.0732,0.5303-0.2197L8,9.0615l2,2l4.5303-4.5303
		c0.293-0.293,0.293-0.7676,0-1.0605s-0.7676-0.293-1.0605,0L10,8.9404l-2-2l-4.5303,4.5303c-0.293,0.293-0.293,0.7676,0,1.0605
		C3.6162,12.6777,3.8076,12.751,4,12.751z"/>
</g>
</svg>
