<?xml version="1.0" encoding="utf-8"?>
<!-- Generator: Adobe Illustrator 19.1.0, SVG Export Plug-In . SVG Version: 6.00 Build 0)  -->
<svg version="1.1" id="Layer_1" xmlns="http://www.w3.org/2000/svg" xmlns:xlink="http://www.w3.org/1999/xlink" x="0px" y="0px"
	 viewBox="0 0 18 18" style="enable-background:new 0 0 18 18;" xml:space="preserve">
<path d="M14.0437,9.6745l-2.3854-2.3853l0.8867-0.8867c0.3135-0.3262,0.4995-0.8882-0.0103-1.4014L9.6831,2.1511
	C9.4692,1.9548,9.2339,1.8552,8.9844,1.8552c-0.3818,0-0.6182,0.2378-0.6943,0.3145l-2.8525,2.854
	C5.1284,5.3743,4.9736,5.9236,5.4658,6.4128L6.3422,7.289l-2.8554,2.8556l-1.0073,0.0002C1.5806,10.1692,1,10.7581,1,11.6443v3.0122
	c0.022,0.9038,0.6104,1.4878,1.5,1.4878h3.0088h0.0088C6.418,16.1233,7,15.5344,7,14.6443v-3.0176
	c-0.0202-0.8528-0.5857-1.4227-1.4081-1.4661L7.403,8.3494l0.9159,0.9155c0.2119,0.1934,0.4448,0.2915,0.6924,0.2915h0.0005
	c0.3838,0,0.6201-0.2397,0.6948-0.3154l0.8912-0.8912l1.6698,1.6697C11.223,10.5607,10.5,11.6395,10.5,12.8948
	c0,1.792,1.458,3.25,3.25,3.25s3.25-1.458,3.25-3.25C17,11.2034,15.6964,9.8257,14.0437,9.6745z"/>
</svg>
