<?xml version="1.0" encoding="utf-8"?>
<!-- Generator: Adobe Illustrator 18.1.1, SVG Export Plug-In . SVG Version: 6.00 Build 0)  -->
<svg version="1.1" id="Layer_1" xmlns="http://www.w3.org/2000/svg" xmlns:xlink="http://www.w3.org/1999/xlink" x="0px" y="0px"
	 viewBox="0 0 18 18" enable-background="new 0 0 18 18" xml:space="preserve">
<path d="M15.4738,11.63c0.008-0.0438,0.0262-0.0839,0.0262-0.13V8.75c0-0.414-0.3358-0.7498-0.7498-0.7499V8H9.75V6.3618
	c0.8712-0.3106,1.5-1.1354,1.5-2.1118C11.25,3.0093,10.2407,2,9,2S6.75,3.0093,6.75,4.25c0,0.9764,0.6288,1.8012,1.5,2.1118V8
	H3.2502v0.0001L3.25,8C2.8359,8,2.5,8.3359,2.5,8.75v2.75c0,0.0461,0.0182,0.0862,0.0262,0.13C1.6417,11.9332,1,12.7639,1,13.75
	C1,14.9907,2.0093,16,3.25,16s2.25-1.0093,2.25-2.25c0-0.9861-0.6417-1.8168-1.5262-2.12C3.9818,11.5862,4,11.5461,4,11.5v-2h4.25
	v2.1382c-0.8712,0.3106-1.5,1.1354-1.5,2.1118C6.75,14.9907,7.7593,16,9,16s2.25-1.0093,2.25-2.25
	c0-0.9764-0.6288-1.8012-1.5-2.1118V9.5H14v2c0,0.0461,0.0182,0.0862,0.0262,0.13C13.1417,11.9332,12.5,12.7639,12.5,13.75
	c0,1.2407,1.0093,2.25,2.25,2.25S17,14.9907,17,13.75C17,12.7639,16.3583,11.9332,15.4738,11.63z"/>
</svg>
