<?xml version="1.0" encoding="utf-8"?>
<!-- Generator: Adobe Illustrator 18.1.1, SVG Export Plug-In . SVG Version: 6.00 Build 0)  -->
<svg version="1.1" id="Layer_1" xmlns="http://www.w3.org/2000/svg" xmlns:xlink="http://www.w3.org/1999/xlink" x="0px" y="0px"
	 viewBox="0 0 18 18" enable-background="new 0 0 18 18" xml:space="preserve">
<path fill="#ffffff" d="M10.2373,9l5.0068-5.0063c0.3408-0.3418,0.3408-0.8955,0-1.2373c-0.3418-0.3418-0.8965-0.3418-1.2383,0L9,7.7627
	L3.9941,2.7563c-0.3418-0.3418-0.8965-0.3418-1.2383,0c-0.3408,0.3418-0.3408,0.8955,0,1.2373L7.7627,9l-5.0068,5.0063
	c-0.3408,0.3418-0.3408,0.8955,0,1.2373c0.3418,0.3418,0.8965,0.3418,1.2383,0L9,10.2373l5.0059,5.0063
	C14.1768,15.4145,14.4014,15.5,14.625,15.5s0.4482-0.0854,0.6191-0.2563c0.3408-0.3418,0.3408-0.8955,0-1.2373L10.2373,9z"/>
</svg>
