<?xml version="1.0" encoding="utf-8"?>
<!-- Generator: Adobe Illustrator 18.1.1, SVG Export Plug-In . SVG Version: 6.00 Build 0)  -->
<svg version="1.1" id="Layer_1" xmlns="http://www.w3.org/2000/svg" xmlns:xlink="http://www.w3.org/1999/xlink" x="0px" y="0px"
	 viewBox="0 0 18 18" enable-background="new 0 0 18 18" xml:space="preserve">
<g>
	<path d="M15.25,9.875H2.75C2.2666,9.875,1.875,9.4834,1.875,9S2.2666,8.125,2.75,8.125h12.5c0.4834,0,0.875,0.3916,0.875,0.875
		S15.7334,9.875,15.25,9.875z" fill="#005B85"/>
	<path d="M15.25,13.875H2.75c-0.4834,0-0.875-0.3916-0.875-0.875s0.3916-0.875,0.875-0.875h12.5c0.4834,0,0.875,0.3916,0.875,0.875
		S15.7334,13.875,15.25,13.875z" fill="#005B85"/>
	<path d="M15.25,5.875H2.75C2.2666,5.875,1.875,5.4834,1.875,5S2.2666,4.125,2.75,4.125h12.5c0.4834,0,0.875,0.3916,0.875,0.875
		S15.7334,5.875,15.25,5.875z" fill="#005B85"/>
</g>
</svg>
