<?xml version="1.0" encoding="utf-8"?>
<!-- Generator: Adobe Illustrator 18.1.1, SVG Export Plug-In . SVG Version: 6.00 Build 0)  -->
<svg version="1.1" id="Layer_1" xmlns="http://www.w3.org/2000/svg" xmlns:xlink="http://www.w3.org/1999/xlink" x="0px" y="0px"
	 viewBox="0 0 18 18" enable-background="new 0 0 18 18" xml:space="preserve">
<g>
	<path fill="#00C7FD" d="M14.999,10.5869C14.9766,10.1436,14.7012,9.625,14,9.625l-0.9723,0.0001l-1.499,1.4999H13.5v3h-9v-3h1.97
		L4.9713,9.6259L3.9736,9.626C3.3818,9.6553,3,10.0469,3,10.625l0.001,4.0322c0.0186,0.4463,0.292,0.9678,0.998,0.9678h10.0186
		l0.0176-0.001C14.4805,15.6035,15,15.3291,15,14.625L14.999,10.5869z"/>
	<path fill="#00C7FD" d="M8.5445,11.0782c0.251,0.2509,0.658,0.2509,0.9091,0l3.356-3.356c0.405-0.405,0.118-1.097-0.455-1.097H10
		V3.375c0-0.5527-0.4473-1-1-1s-1,0.4473-1,1v3.2502H5.6436c-0.5731,0-0.86,0.692-0.455,1.097L8.5445,11.0782z"/>
</g>
</svg>
