<?xml version="1.0" encoding="utf-8"?>
<!-- Generator: Adobe Illustrator 19.1.0, SVG Export Plug-In . SVG Version: 6.00 Build 0)  -->
<svg version="1.1" id="Layer_1" xmlns="http://www.w3.org/2000/svg" xmlns:xlink="http://www.w3.org/1999/xlink" x="0px" y="0px"
	 viewBox="0 0 18 18" style="enable-background:new 0 0 18 18;" xml:space="preserve">
<path fill="#005B85" d="M14.0432,9.6744l-2.3854-2.3852l0.8876-0.8876c0.3125-0.3262,0.498-0.8882-0.0112-1.4004L9.6816,2.1497
	C9.4678,1.9543,9.2334,1.8552,8.9839,1.8552c-0.3804,0-0.6084,0.228-0.6943,0.314L5.4385,5.0227
	c-0.3086,0.3486-0.4639,0.896,0.0269,1.3901l0.8765,0.8762l-2.8557,2.8555l-1.0067,0.0002C1.5806,10.1692,1,10.7581,1,11.6443
	v3.0112c0.0205,0.9043,0.6094,1.4888,1.5,1.4888h3.0088h0.0088C6.418,16.1233,7,15.5344,7,14.6443v-3.0186
	c-0.0216-0.8658-0.5754-1.4236-1.4083-1.4656l1.8109-1.8107l0.9158,0.9155c0.2119,0.1934,0.4448,0.2915,0.6924,0.2915
	c0.0005,0,0,0,0.0005,0c0.3838,0,0.6201-0.2397,0.6948-0.3154l0.8912-0.8912l1.67,1.6698C11.2229,10.5609,10.5,11.6396,10.5,12.8948
	c0,1.792,1.458,3.25,3.25,3.25s3.25-1.458,3.25-3.25C17,11.2032,15.6961,9.8253,14.0432,9.6744z M5.4941,14.6443
	c-0.0015,0-0.0029,0-0.0039,0L2.5,14.6384l0.0059-2.9883H5.5L5.4941,14.6443z M9,7.8259L6.877,5.7034l2.1191-2.1191l2.1226,2.123
	L9,7.8259z M13.75,14.6448c-0.9648,0-1.75-0.7852-1.75-1.75s0.7852-1.75,1.75-1.75s1.75,0.7852,1.75,1.75
	S14.7148,14.6448,13.75,14.6448z"/>
</svg>
