<?xml version="1.0" standalone="no"?><!DOCTYPE svg PUBLIC "-//W3C//DTD SVG 1.1//EN" "http://www.w3.org/Graphics/SVG/1.1/DTD/svg11.dtd"><svg t="1666595589985" class="icon" viewBox="0 0 1024 1024" version="1.1" xmlns="http://www.w3.org/2000/svg" p-id="3132" xmlns:xlink="http://www.w3.org/1999/xlink" width="16" height="16"><path d="M330.695111 85.390222a32.256 32.256 0 0 0-31.971555-32.028444 32.256 32.256 0 0 0-32.028445 32.028444v66.56a256 256 0 0 1 32.028445-2.56h32.028444zM672.028444 85.390222a32.256 32.256 0 0 0-31.971555-32.028444 32.256 32.256 0 0 0-32.028445 32.028444v64h32.028445a256 256 0 0 1 32.028444 2.56zM789.333333 981.333333a189.155556 189.155556 0 0 1-112.355555-36.977777 193.422222 193.422222 0 0 1-52.053334-56.888889 190.634667 190.634667 0 0 1 44.544-247.864889 191.772444 191.772444 0 0 1 284.16 248.718222 170.666667 170.666667 0 0 1-38.001777 45.511111 190.407111 190.407111 0 0 1-126.293334 47.502222z m0-283.306666a91.420444 91.420444 0 0 1-91.306666 91.306666 91.420444 91.420444 0 0 1 91.306666 91.306667 91.420444 91.420444 0 0 1 91.306667-91.306667 91.420444 91.420444 0 0 1-91.306667-91.306666z" fill="#424242" p-id="3133"></path><path d="M474.851556 938.666667H298.666667a212.309333 212.309333 0 0 1-162.702223-58.652445 219.875556 219.875556 0 0 1-50.631111-154.680889V362.666667c0-127.032889 62.577778-199.907556 181.304889-210.773334v61.44a32.028444 32.028444 0 0 0 64 0V149.333333h277.333334V213.333333a32.028444 32.028444 0 0 0 64 0V151.893333C790.755556 162.759111 853.333333 235.690667 853.333333 362.666667v102.798222a49.322667 49.322667 0 0 1-51.598222 46.478222h-1.706667a287.687111 287.687111 0 0 0-279.04 358.855111 58.595556 58.595556 0 0 1-10.467555 49.436445 44.714667 44.714667 0 0 1-35.669333 18.432zM298.666667 650.695111a32.028444 32.028444 0 0 0-32.028445 31.971556 32.426667 32.426667 0 0 0 32.028445 31.971555h85.333333A32.426667 32.426667 0 0 0 415.971556 682.666667a32.028444 32.028444 0 0 0-31.971556-31.971556z m0-213.333333a32.426667 32.426667 0 0 0-32.028445 31.971555 32.085333 32.085333 0 0 0 32.028445 32.028445H512a32.028444 32.028444 0 0 0 0-64z" fill="#424242" p-id="3134"></path></svg>