<?xml version="1.0" encoding="UTF-8" standalone="no"?>
<!-- Created by diasvg.py -->
<svg width="29.100cm" height="12.100cm" viewBox="1.950 0.950 29.100 12.100"
 xmlns="http://www.w3.org/2000/svg"
 xmlns:xlink="http://www.w3.org/1999/xlink">
<!-- Layer: Background -->
<g id="Background">
<!-- Flowchart - Box -->
<rect x="2.000" y="2.000" width="8.000" height="2.000" fill="#FFFFFF" stroke="#000000" stroke-width="0.100"  rx="0.000" />
<text x="6.000" y="3.195"  fill="#000000" text-anchor="middle" font-size="0.80" font-family="sans" font-style="normal" font-weight="400">
Model + Dataset</text>
<!-- Flowchart - Box -->
<rect x="2.000" y="6.000" width="8.000" height="2.000" fill="#FFFFFF" stroke="#000000" stroke-width="0.100"  rx="0.000" />
<text x="6.000" y="7.195"  fill="#000000" text-anchor="middle" font-size="0.80" font-family="sans" font-style="normal" font-weight="400">
Pre Processor</text>
<!-- Flowchart - Box -->
<rect x="24.000" y="6.000" width="7.000" height="2.000" fill="#FFFFFF" stroke="#000000" stroke-width="0.100"  rx="0.000" />
<text x="27.500" y="7.195"  fill="#000000" text-anchor="middle" font-size="0.80" font-family="sans" font-style="normal" font-weight="400">
Post Processor</text>
<!-- Flowchart - Box -->
<rect x="13.000" y="1.000" width="8.000" height="8.000" fill="#FFFFFF" stroke="#000000" stroke-width="0.100"  rx="0.000" />
<text x="17.000" y="5.195"  fill="#000000" text-anchor="middle" font-size="0.80" font-family="sans" font-style="normal" font-weight="400">
Benchmark</text>
<!-- Flowchart - Box -->
<rect x="24.000" y="1.000" width="7.000" height="4.000" fill="#FFFFFF" stroke="#000000" stroke-width="0.100"  rx="0.000" />
<text x="27.500" y="3.195"  fill="#000000" text-anchor="middle" font-size="0.80" font-family="sans" font-style="normal" font-weight="400">
Backend</text>
<!-- Flowchart - Box -->
<rect x="13.000" y="11.000" width="8.000" height="2.000" fill="#FFFFFF" stroke="#000000" stroke-width="0.100"  rx="0.000" />
<text x="17.000" y="12.195"  fill="#000000" text-anchor="middle" font-size="0.80" font-family="sans" font-style="normal" font-weight="400">
LoadGen</text>
<!-- Standard - Line -->
<line x1="10.000" y1="3.000" x2="12.513" y2="3.000" stroke="#000000" stroke-width="0.100" />
<polygon fill="#000000" stroke="#000000" stroke-width="0.100"  points="12.888,3.000 12.388,3.250 12.513,3.000 12.388,2.750 "/>
<!-- Standard - Line -->
<line x1="10.000" y1="7.000" x2="12.513" y2="7.000" stroke="#000000" stroke-width="0.100" />
<polygon fill="#000000" stroke="#000000" stroke-width="0.100"  points="12.888,7.000 12.388,7.250 12.513,7.000 12.388,6.750 "/>
<!-- Standard - Line -->
<line x1="15.000" y1="9.000" x2="15.000" y2="10.513" stroke="#000000" stroke-width="0.100" />
<polygon fill="#000000" stroke="#000000" stroke-width="0.100"  points="15.000,10.888 14.750,10.388 15.000,10.513 15.250,10.388 "/>
<!-- Standard - Line -->
<line x1="17.000" y1="11.000" x2="17.000" y2="9.487" stroke="#000000" stroke-width="0.100" />
<polygon fill="#000000" stroke="#000000" stroke-width="0.100"  points="17.000,9.112 17.250,9.612 17.000,9.487 16.750,9.612 "/>
<!-- Standard - Line -->
<line x1="19.000" y1="9.000" x2="19.000" y2="10.513" stroke="#000000" stroke-width="0.100" />
<polygon fill="#000000" stroke="#000000" stroke-width="0.100"  points="19.000,10.888 18.750,10.388 19.000,10.513 19.250,10.388 "/>
<!-- Standard - Line -->
<line x1="21.000" y1="3.000" x2="23.513" y2="3.000" stroke="#000000" stroke-width="0.100" />
<polygon fill="#000000" stroke="#000000" stroke-width="0.100"  points="23.888,3.000 23.388,3.250 23.513,3.000 23.388,2.750 "/>
<!-- Standard - Line -->
<line x1="24.000" y1="7.000" x2="21.487" y2="7.000" stroke="#000000" stroke-width="0.100" />
<polygon fill="#000000" stroke="#000000" stroke-width="0.100"  points="21.112,7.000 21.612,6.750 21.487,7.000 21.612,7.250 "/>
<!-- Standard - Text -->
<text x="10.850" y="2.650"  fill="#000000" text-anchor="start" font-size="0.80" font-family="sans" font-style="normal" font-weight="400">
1</text>
<!-- Standard - Text -->
<!-- Standard - Text -->
<text x="14.100" y="9.950"  fill="#000000" text-anchor="start" font-size="0.80" font-family="sans" font-style="normal" font-weight="400">
2</text>
<!-- Standard - Text -->
<text x="16.100" y="10.450"  fill="#000000" text-anchor="start" font-size="0.80" font-family="sans" font-style="normal" font-weight="400">
3</text>
<!-- Standard - Text -->
<text x="18.100" y="9.950"  fill="#000000" text-anchor="start" font-size="0.80" font-family="sans" font-style="normal" font-weight="400">
5</text>
<!-- Standard - Text -->
<text x="21.950" y="2.650"  fill="#000000" text-anchor="start" font-size="0.80" font-family="sans" font-style="normal" font-weight="400">
4</text>
<!-- Standard - Text -->
<!-- Standard - Text -->
<text x="24.500" y="12.221"  fill="#000000" text-anchor="start" font-size="0.80" font-family="sans" font-style="normal" font-weight="400">
LoadGen Logs</text>
<!-- Standard - Line -->
<line x1="21.000" y1="12.000" x2="23.513" y2="12.000" stroke="#000000" stroke-width="0.100" />
<polygon fill="#000000" stroke="#000000" stroke-width="0.100"  points="23.888,12.000 23.388,12.250 23.513,12.000 23.388,11.750 "/>
<!-- Standard - Text -->
<text x="21.900" y="11.450"  fill="#000000" text-anchor="start" font-size="0.80" font-family="sans" font-style="normal" font-weight="400">
6</text>
<!-- Standard - Text -->
<!-- Standard - Text -->
<!-- Standard - Line -->
<line x1="27.500" y1="5.000" x2="27.500" y2="5.513" stroke="#000000" stroke-width="0.100" />
<polygon fill="#000000" stroke="#000000" stroke-width="0.100"  points="27.500,5.888 27.250,5.388 27.500,5.513 27.750,5.388 "/>
</g>
</svg>