<?xml version="1.0" standalone="no"?><!DOCTYPE svg PUBLIC "-//W3C//DTD SVG 1.1//EN" "http://www.w3.org/Graphics/SVG/1.1/DTD/svg11.dtd"><svg t="1666272671889" class="icon" viewBox="0 0 1024 1024" version="1.1" xmlns="http://www.w3.org/2000/svg" p-id="1324" xmlns:xlink="http://www.w3.org/1999/xlink" width="16" height="16"><path d="M511.91189937 991.99991188a132.02529281 132.02529281 0 0 1-66.01264593-17.60337188L144.52951812 800.29918719A132.02529281 132.02529281 0 0 1 78.51687219 685.96528344V337.94661219a132.02529281 132.02529281 0 0 1 66.01264593-114.42192094L445.89925344 49.60337281a132.02529281 132.02529281 0 0 1 132.02529187 0L879.47031406 223.61270844a132.02529281 132.02529281 0 0 1 66.01264688 114.42192V685.96528344a132.02529281 132.02529281 0 0 1-66.01264688 114.42192l-301.54576875 173.92131937a132.02529281 132.02529281 0 0 1-66.01264593 17.69138907zM511.91189937 58.40505875a105.62023406 105.62023406 0 0 0-52.8101175 14.0826975L157.7320475 246.49709188a105.62023406 105.62023406 0 0 0-52.8101175 91.44952031V685.96528344a105.62023406 105.62023406 0 0 0 52.8101175 91.44951937l301.36973438 174.00933563a105.62023406 105.62023406 0 0 0 105.620235 0l301.36973437-174.00933563a105.62023406 105.62023406 0 0 0 52.8101175-91.44951937V337.94661219a105.62023406 105.62023406 0 0 0-52.8101175-91.44952032L564.72201688 72.48775625a105.62023406 105.62023406 0 0 0-52.81011751-14.0826975z" p-id="1325" fill="#515151"></path><path d="M511.91189937 634.6514525c-176.03372344 0-314.39623031-56.24277469-314.39623031-127.8885s138.09845625-127.8885 314.39623032-127.8885S826.6601975 435.02921 826.6601975 506.7629525 688.20967344 634.6514525 511.91189937 634.6514525z m0-229.37194125c-169.69650938 0-287.99117156 53.426235-287.99117156 101.48344125S342.56745688 608.24639469 511.91189937 608.24639469 800.25513875 554.7321425 800.25513875 506.7629525 681.60840875 405.27951125 511.91189937 405.27951125z" p-id="1326" fill="#515151"></path><path d="M341.07117031 747.4010525A70.41348937 70.41348937 0 0 1 289.75734031 729.00552875c-50.6977125-50.6977125 7.21738312-188.09203406 132.02529282-312.72391031 58.00311187-58.00311187 121.28723531-104.03593031 178.23414468-129.56082 60.90766875-27.28522687 108.70082437-28.16539594 134.48976469-2.28843844 50.6977125 50.6977125-7.21738312 188.09203406-132.02529188 312.72390937-94.26605906 94.09002563-195.57346687 150.24478312-261.41008031 150.24478313z m341.06533969-455.48725969a183.77920781 183.77920781 0 0 0-71.55770812 18.923625c-54.13036969 24.29265375-114.42192 68.38910156-170.40064501 124.10377594-120.05499937 120.05499937-165.82376812 241.51826906-132.02529281 275.40476062s155.34976125-11.88227625 275.31674438-132.02529281 165.82376812-241.43025187 132.02529281-275.40476062a45.856785 45.856785 0 0 0-33.35839125-11.00210813z" p-id="1327" fill="#515151"></path><path d="M511.91189937 821.07116656c-71.7337425 0-127.8885-138.01043906-127.88849999-314.30821406s56.1547575-314.39623031 127.8885-314.39623031 127.8885 138.09845625 127.8885 314.39623031-56.1547575 314.30821406-127.8885 314.30821406z m0-602.29938562c-47.96919 0-101.48344125 118.206645-101.48344124 287.99117156s53.51425219 287.90315531 101.48344125 287.90315531 101.48344125-118.206645 101.48344125-287.90315531-53.426235-287.99117156-101.48344125-287.99117156z" p-id="1328" fill="#515151"></path><path d="M682.84064469 747.4010525c-65.8366125 0-167.2320375-56.1547575-261.32206219-150.24478312C296.79868906 472.52439312 238.88359438 335.1300725 289.75734031 284.43236c25.8769575-25.78894031 73.58209688-24.99678844 134.48976469 2.28843844 56.94690937 25.52488969 120.31905 71.55770906 178.32216188 129.56082 124.63187625 124.63187625 182.54697187 262.02619781 132.02529281 312.72391031a70.41348937 70.41348937 0 0 1-51.753915 18.39552375zM341.775305 291.91379281a45.68075156 45.68075156 0 0 0-33.44640656 11.17814157c-33.97450875 33.97450875 11.79425906 155.34976125 132.02529187 275.40476062s241.43025187 165.82376812 275.40476063 132.02529281S703.43659063 554.99619312 583.64564187 434.94119375C527.93096844 379.22652031 467.3753675 335.1300725 412.98094625 310.83741781a183.86722406 183.86722406 0 0 0-71.20564125-18.923625z" p-id="1329" fill="#515151"></path></svg>