<?xml version="1.0" encoding="utf-8"?>
<!-- Generator: Adobe Illustrator 19.1.0, SVG Export Plug-In . SVG Version: 6.00 Build 0)  -->
<svg version="1.1" id="Layer_1" xmlns="http://www.w3.org/2000/svg" xmlns:xlink="http://www.w3.org/1999/xlink" x="0px" y="0px"
	 viewBox="0 0 18 18" style="enable-background:new 0 0 18 18;" xml:space="preserve">
<style type="text/css">
	.st0{fill:#1E74BB;}
</style>
<g>
	<path fill="#fff" d="M9,5.0084c1.1653,0,2.2532,0.3264,3.188,0.884l1.0935-1.0881C12.0538,3.9871,10.5822,3.5084,9,3.5084
		c-4.2734,0-7.75,3.4766-7.75,7.75c0,0.9072,0.1772,1.8325,0.5259,2.7495c0.1479,0.3872,0.583,0.5815,0.9678,0.4346
		c0.3872-0.1475,0.5815-0.5811,0.4346-0.9678C2.894,12.7282,2.75,11.9825,2.75,11.2584C2.75,7.8121,5.5537,5.0084,9,5.0084z"/>
	<path fill="#fff" d="M14.2256,5.275l-6.5776,6.5356c-0.3081,0.4414-0.4321,0.8721-0.3496,1.3325c0.0767,0.4312,0.3154,0.8062,0.6719,1.0562
		c0.7148,0.4995,1.7812,0.3081,2.2808-0.4033l0.0859-0.1304L14.2256,5.275z M8.9436,13.6533c-0.446,0-0.808-0.361-0.808-0.807
		c0-0.447,0.362-0.808,0.808-0.808s0.808,0.361,0.808,0.808C9.7516,13.2923,9.3896,13.6533,8.9436,13.6533z"/>
	<path fill="#fff" d="M14.8853,6.2294l-0.7093,1.53c0.6776,0.9991,1.074,2.2035,1.074,3.499c0,0.7266-0.144,1.4722-0.4277,2.2153
		c-0.1479,0.3872,0.0464,0.8203,0.4331,0.9683c0.0879,0.0337,0.1787,0.0493,0.2676,0.0493c0.3018,0,0.5864-0.1836,0.7007-0.4824
		c0.3491-0.915,0.5264-1.8403,0.5264-2.7505C16.75,9.3392,16.0449,7.5845,14.8853,6.2294z"/>
</g>
</svg>
