<?xml version="1.0" standalone="no"?><!DOCTYPE svg PUBLIC "-//W3C//DTD SVG 1.1//EN" "http://www.w3.org/Graphics/SVG/1.1/DTD/svg11.dtd"><svg t="1666595165215" class="icon" viewBox="0 0 1024 1024" version="1.1" xmlns="http://www.w3.org/2000/svg" p-id="1246" xmlns:xlink="http://www.w3.org/1999/xlink" width="16" height="16"><path d="M329.27744 247.3984V133.12a30.72 30.72 0 0 1 61.44 0v113.8688a30.72 30.72 0 1 1-61.44 0.4096z" fill="#c5c5c5" p-id="1247"></path><path d="M633.28256 247.3984V133.12a30.72 30.72 0 1 1 61.44 0v113.8688a30.72 30.72 0 1 1-61.44 0.4096z" fill="#c5c5c5" p-id="1248"></path><path d="M701.6448 921.6H322.3552A199.72096 199.72096 0 0 1 122.88 722.1248V363.3152c0-5.7344 0.4096-11.55072 0.8192-17.2032a134.26688 134.26688 0 0 1 1.6384-13.9264 122.2656 122.2656 0 0 1 3.6864-18.0224 157.65504 157.65504 0 0 1 5.7344-18.432l0.4096-1.47456a24.20736 24.20736 0 0 1 1.92512-4.096 97.97632 97.97632 0 0 1 6.5536-15.1552c0-0.8192 0.4096-1.2288 1.2288-2.048a143.36 143.36 0 0 1 9.8304-17.2032 6.06208 6.06208 0 0 1 1.26976-1.80224 106.496 106.496 0 0 1 11.55072-15.5648 175.43168 175.43168 0 0 1 30.3104-30.3104 17.94048 17.94048 0 0 1 2.00704-1.59744A16.91648 16.91648 0 0 0 201.9328 204.8a31.1296 31.1296 0 0 1 4.5056-2.8672 2.08896 2.08896 0 0 1 0.6144-0.4096 2.12992 2.12992 0 0 0 0.6144-0.4096 40.42752 40.42752 0 0 1 18.47296-4.5056A41.61536 41.61536 0 0 1 267.8784 237.9776v4.096a101.53984 101.53984 0 0 0 42.1888 82.3296 109.85472 109.85472 0 0 0 11.8784 6.51264 78.15168 78.15168 0 0 0 12.288 4.95616 67.29728 67.29728 0 0 0 16.01536 3.2768 79.62624 79.62624 0 0 0 19.6608 0 66.51904 66.51904 0 0 0 15.9744-3.2768 54.72256 54.72256 0 0 0 12.288-4.95616 109.85472 109.85472 0 0 0 11.8784-6.51264 90.35776 90.35776 0 0 0 42.14784-77.0048V204.8a40.96 40.96 0 0 1 40.96-40.96h37.6832a40.96 40.96 0 0 1 40.96 40.96v42.5984a92.32384 92.32384 0 0 0 92.20096 92.24192A92.16 92.16 0 0 0 756.1216 242.0736v-4.096a41.5744 41.5744 0 0 1 41.61536-41.3696 40.67328 40.67328 0 0 1 24.3712 8.192A197.87776 197.87776 0 0 1 901.12 363.3152v358.8096a199.72096 199.72096 0 0 1-199.4752 199.4752z m-379.6992-249.4464a30.9248 30.9248 0 0 0 0 61.8496h190.0544a30.9248 30.9248 0 0 0 0-61.8496z m0-151.9616a30.9248 30.9248 0 0 0 0 61.80864h303.9232a30.9248 30.9248 0 1 0 0-61.80864z" fill="#c5c5c5" p-id="1249"></path></svg>