<?xml version="1.0" standalone="no"?><!DOCTYPE svg PUBLIC "-//W3C//DTD SVG 1.1//EN" "http://www.w3.org/Graphics/SVG/1.1/DTD/svg11.dtd"><svg t="1666595469947" class="icon" viewBox="0 0 1024 1024" version="1.1" xmlns="http://www.w3.org/2000/svg" p-id="1997" xmlns:xlink="http://www.w3.org/1999/xlink" width="16" height="16"><path d="M329.27744 247.3984V133.12a30.72 30.72 0 0 1 61.44 0v113.8688a30.72 30.72 0 1 1-61.44 0.4096z" fill="#c5c5c5" p-id="1998"></path><path d="M633.28256 247.3984V133.12a30.72 30.72 0 1 1 61.44 0v113.8688a30.72 30.72 0 1 1-61.44 0.4096zM893.70624 686.08l-225.6896 227.328a25.76384 25.76384 0 0 1-19.2512 8.192 26.46016 26.46016 0 0 1-26.624-26.2144v-143.36a111.73888 111.73888 0 0 1 113.0496-109.3632c38.912-0.4096 92.9792-0.4096 139.264-0.4096a26.2144 26.2144 0 0 1 26.624 26.2144 24.1664 24.1664 0 0 1-7.3728 17.6128z" fill="#c5c5c5" p-id="1999"></path><path d="M893.70624 686.08l-225.6896 227.328a25.76384 25.76384 0 0 1-19.2512 8.192 26.46016 26.46016 0 0 1-26.624-26.2144v-143.36a111.73888 111.73888 0 0 1 113.0496-109.3632c38.912-0.4096 92.9792-0.4096 139.264-0.4096a26.2144 26.2144 0 0 1 26.624 26.2144 24.1664 24.1664 0 0 1-7.3728 17.6128z" fill="#c5c5c5" p-id="2000"></path><path d="M519.7824 921.6H322.3552A199.72096 199.72096 0 0 1 122.88 722.1248V363.3152c0-5.7344 0.4096-11.55072 0.8192-17.2032a134.26688 134.26688 0 0 1 1.6384-13.9264 122.2656 122.2656 0 0 1 3.6864-18.0224l0.2048-0.8192c1.14688-4.096 2.29376-8.47872 3.4816-12.288a20.19328 20.19328 0 0 0 1.024-2.6624 20.23424 20.23424 0 0 1 1.024-2.6624l0.4096-1.47456a24.1664 24.1664 0 0 1 1.92512-4.096 97.97632 97.97632 0 0 1 6.5536-15.1552c0-0.8192 0.4096-1.2288 1.2288-2.048a143.36 143.36 0 0 1 9.8304-17.2032 6.06208 6.06208 0 0 1 1.26976-1.80224 30.06464 30.06464 0 0 0 1.47456-2.2528 57.99936 57.99936 0 0 1 4.096-5.65248 38.7072 38.7072 0 0 1 4.38272-5.69344l1.59744-1.96608a108.50304 108.50304 0 0 1 9.0112-10.24 172.72832 172.72832 0 0 1 25.3952-23.10144c1.31072-1.024 2.8672-2.08896 4.096-3.11296h0.4096a2.08896 2.08896 0 0 1 0.6144-0.4096 2.12992 2.12992 0 0 0 0.6144-0.4096 40.42752 40.42752 0 0 1 18.47296-4.5056A41.61536 41.61536 0 0 1 267.8784 237.9776v9.4208a91.66848 91.66848 0 0 0 54.0672 83.5584 78.15168 78.15168 0 0 0 12.288 4.95616 67.29728 67.29728 0 0 0 16.01536 3.2768h0.4096a73.23648 73.23648 0 0 0 18.8416 0h0.4096a66.51904 66.51904 0 0 0 15.9744-3.2768 6.26688 6.26688 0 0 1 1.18784-0.4096 5.36576 5.36576 0 0 0 1.2288-0.45056c3.56352-1.31072 6.5536-2.62144 9.0112-3.6864a0.57344 0.57344 0 0 0 0.45056-0.2048 0.53248 0.53248 0 0 1 0.4096 0 29.40928 29.40928 0 0 0 4.87424-3.072 98.59072 98.59072 0 0 0 49.152-86.016V204.8a40.96 40.96 0 0 1 40.96-40.96h37.6832a40.96 40.96 0 0 1 40.96 40.96v42.5984a92.32384 92.32384 0 0 0 92.20096 92.24192A92.16 92.16 0 0 0 756.1216 242.0736v-4.096a41.5744 41.5744 0 0 1 41.61536-41.3696 40.67328 40.67328 0 0 1 24.3712 8.192A197.87776 197.87776 0 0 1 901.12 363.3152v176.5376a40.96 40.96 0 0 1-40.96 40.96c-50.74944 0-103.2192 0-124.928 0.4096a172.89216 172.89216 0 0 0-174.4896 170.84416V880.64a40.96 40.96 0 0 1-40.96 40.96z m-221.184-290.4064a30.96576 30.96576 0 0 0-30.76096 31.1296 29.61408 29.61408 0 0 0 25.3952 29.9008 11.01824 11.01824 0 0 0 5.3248 0.86016h149.13536a29.57312 29.57312 0 0 0 28.672-20.8896 19.90656 19.90656 0 0 0 2.00704-9.8304 30.96576 30.96576 0 0 0-30.72-31.1296z m0-151.9616a30.59712 30.59712 0 0 0-30.76096 31.1296 29.61408 29.61408 0 0 0 25.3952 29.9008 11.4688 11.4688 0 0 0 5.3248 0.8192h262.9632a29.53216 29.53216 0 0 0 28.672-20.84864 19.90656 19.90656 0 0 0 2.048-9.8304 30.59712 30.59712 0 0 0-30.72-31.1296z" fill="#c5c5c5" p-id="2001"></path></svg>