<?xml version="1.0" encoding="utf-8"?>
<!-- Generator: Adobe Illustrator 18.1.1, SVG Export Plug-In . SVG Version: 6.00 Build 0)  -->
<svg version="1.1" id="Layer_1" xmlns="http://www.w3.org/2000/svg" xmlns:xlink="http://www.w3.org/1999/xlink" x="0px" y="0px"
	 viewBox="0 0 18 18" enable-background="new 0 0 18 18" xml:space="preserve">
<g>
	<path fill="#53565a" d="M10,4.5l-3-3v2c0,0,0,1,1,1H10z"/>
	<path fill="#53565a" d="M14.5,9.5V15h-5V7H12V5.5H8l0.001,10.0322C8.0195,15.9785,8.293,16.5,9,16.5h6.0186l0.0176-0.001
		C15.4814,16.4775,16,16.2026,16,15.5l-0.0007-6H14.5z"/>
	<path fill="#53565a" d="M14,8.5h2l-3-3v2C13,7.5,13,8.5,14,8.5z"/>
	<path fill="#53565a" d="M3.5,3H6V1.5H2l0.001,10.0312C2.0195,11.9775,2.293,12.499,3,12.499h4v-1.5H3.5V3z"/>
</g>
</svg>
