<?xml version="1.0" standalone="no"?><!DOCTYPE svg PUBLIC "-//W3C//DTD SVG 1.1//EN" "http://www.w3.org/Graphics/SVG/1.1/DTD/svg11.dtd"><svg t="1666686541400" class="icon" viewBox="0 0 1280 1024" version="1.1" xmlns="http://www.w3.org/2000/svg" p-id="5802" xmlns:xlink="http://www.w3.org/1999/xlink" width="20" height="16"><path d="M1057.28 262.9504H222.2464c-45.0304 0-81.4464 32.256-81.4464 72.064v396.6592c0 40.2688 36.416 72.512 81.4464 72.512H1057.28c45.5168 0 81.92-32.256 81.92-72.512V335.0144c0-39.808-36.416-72.064-81.92-72.064z m-11.0464 392.3584c0 40.2816-36.5312 72.4864-81.4976 72.4864H310.464c-45.0688 0-81.5232-32.2048-81.5232-72.4864V415.6544c0-39.8848 36.4672-72.128 81.5232-72.128H964.736c44.9792 0 81.4976 32.2432 81.4976 72.128v239.6544z" fill="#424242" p-id="5803"></path><path d="M1057.28 219.8144H222.2464c-45.0304 0-81.4464 32.256-81.4464 72.064v396.6592c0 40.2816 36.416 72.512 81.4464 72.512H1057.28c45.5168 0 81.92-32.2304 81.92-72.512V291.8784c0-39.8208-36.416-72.064-81.92-72.064z m-11.0464 392.3456c0 40.3072-36.5312 72.4864-81.4976 72.4864H310.464c-45.0688 0-81.5232-32.1792-81.5232-72.4864V372.5184c0-39.8848 36.4672-72.1152 81.5232-72.1152H964.736c44.9792 0 81.4976 32.2304 81.4976 72.1152v239.6416z" fill="#424242" p-id="5804"></path><path d="M381.5808 626.2528c0 14.72-13.504 26.6496-29.952 26.6496-16.8064 0-30.2464-11.9296-30.2464-26.6496V383.488c0-14.6432 13.44-26.6624 30.2464-26.6624 16.448 0 29.952 12.0192 29.952 26.6624v242.7648zM450.8288 613.824c0 13.8624 11.4304 24.9984 25.5488 24.9984 14.1568 0 25.6128-11.136 25.6128-24.9984 0-13.7984-11.456-25.0112-25.6128-25.0112-14.1184 0-25.5488 11.2128-25.5488 25.0112 0 13.8624 0 0 0 0zM565.9904 613.824c0 13.8624 11.4944 24.9984 25.6 24.9984 14.1184 0 25.5488-11.136 25.5488-24.9984 0-13.7984-11.4304-25.0112-25.5488-25.0112-14.1056 0-25.6 11.2128-25.6 25.0112 0 13.8624 0 0 0 0zM686.3616 613.824c0 13.8624 11.4816 24.9984 25.6 24.9984 14.0928 0 25.6-11.136 25.6-24.9984 0-13.7984-11.5072-25.0112-25.6-25.0112-14.1056 0-25.6 11.2128-25.6 25.0112 0 13.8624 0 0 0 0z" fill="#424242" p-id="5805"></path></svg>