<?xml version="1.0" standalone="no"?><!DOCTYPE svg PUBLIC "-//W3C//DTD SVG 1.1//EN" "http://www.w3.org/Graphics/SVG/1.1/DTD/svg11.dtd"><svg t="1668582594071" class="icon" viewBox="0 0 1024 1024" version="1.1" xmlns="http://www.w3.org/2000/svg" p-id="2516" xmlns:xlink="http://www.w3.org/1999/xlink" width="128" height="128"><path d="M302.06 460.46V625.9h-52.61V418l108.67 0.13c46.08 0 61.83 32.57 61.83 62.08V625.9h-52.48V480.49c0-12.42-6.4-20-21.89-20zM660 458c-18 0-31.94 9.22-37.76 21.76a54 54 0 0 0-5.06 22.6h81C697.19 479.78 687 458 660 458z m-42.82 80.2c0 26.88 16.77 46.72 46.66 46.72 23.23 0 34.82-6.4 48.26-19.84l32.51 31c-20.8 20.54-42.69 33-81.15 33-50.37 0-98.56-27.46-98.56-107.52 0-68.48 42-107.14 97.34-107.14 56.13 0 88.51 45.32 88.51 104.71v18.94H617.19z m-96.76 87.36c-42.88 0-61.12-29.83-61.12-59.33V361.38h52.6V418h39.62v42.5h-39.67v102.4c0 12.16 5.76 18.82 18.3 18.82h21.38v43.84zM202.6 389.29h-53v-50.37h53z m0.13 238.71c-39.68-3.78-53.18-27.84-53.18-55.68V418.09h53.12v210.05z m631.68-4.42c-39.62-3.84-53.06-27.84-53.06-55.61V331.82h53.06v291.77z m185.41-257.66c-48-234.37-503-249.22-796.23-70.72v19.71C516.52 164.39 932 165.29 969.83 381.1c12.68 71.42-27.52 145.79-99.39 188.6v55.94c86.47-31.62 175.17-134.21 149.38-259.71zM486.76 776C284.39 794.66 73.51 765.29 44 607.14c-14.46-77.95 21.12-160.64 68.16-212v-27.4C27.37 442.15-18.65 536.3 7.85 647.53 41.64 790.25 222.7 871.08 498.92 844.2c109.31-10.62 252.42-45.82 351.87-100.42v-77.5C760.55 720 611.18 764.46 486.76 776z m409-428.55c0-2.56-1.53-3.39-4.93-3.39h-3.32v7.3l3.32 0.06c3.4 0 4.93-1.09 4.93-3.58v-0.39z m5.12 18.05H897a1 1 0 0 1-0.89-0.51l-5.32-9.09a1.23 1.23 0 0 0-0.76-0.38h-2.44v9a1 1 0 0 1-1 1.08h-3.52a1.1 1.1 0 0 1-0.89-1.08v-22.78c0-1.28 0.51-1.92 1.6-2.05q3.25-0.27 6.53-0.26c6.52 0 10.49 1.92 10.49 8.07v0.38c0 3.84-1.92 5.76-4.86 6.78l5.57 9.35c0 0.19 0.19 0.45 0.19 0.7a0.76 0.76 0 0 1-0.83 0.77v0.06z m-9.28-30.27a17.47 17.47 0 1 0 17.54 17.6 17.67 17.67 0 0 0-17.58-17.62z m0 38.72a21.12 21.12 0 0 1 0-42.24 21.12 21.12 0 0 1 0 42.24z" p-id="2517" fill="#1296db"></path></svg>